<?xml version="1.0" encoding="UTF-8"?><svg xmlns="http://www.w3.org/2000/svg" viewBox="0 0 85.04 78.67"><defs><style>.d{fill:#034ea2;}.e{fill:#fff200;}.f{fill:#fff;}</style></defs><g id="a"/><g id="b"><g id="c"><g><rect class="d" width="85.04" height="56.69"/><polygon class="e" points="42.52 6.35 43.23 8.53 45.52 8.53 43.67 9.88 44.38 12.07 42.52 10.72 40.66 12.07 41.37 9.88 39.51 8.53 41.81 8.53 42.52 6.35"/><polygon class="e" points="51.97 8.89 52.68 11.07 54.98 11.07 53.12 12.42 53.83 14.61 51.97 13.26 50.11 14.61 50.82 12.42 48.97 11.07 51.26 11.07 51.97 8.89"/><polygon class="e" points="58.85 15.78 59.56 17.96 61.85 17.97 60 19.32 60.71 21.5 58.85 20.15 56.99 21.5 57.7 19.32 55.84 17.97 58.14 17.96 58.85 15.78"/><polygon class="e" points="61.37 25.2 62.08 27.38 64.37 27.38 62.52 28.73 63.23 30.92 61.37 29.57 59.51 30.92 60.22 28.73 58.37 27.38 60.66 27.38 61.37 25.2"/><polygon class="e" points="58.85 34.62 59.56 36.8 61.85 36.8 60 38.15 60.71 40.33 58.85 38.99 56.99 40.33 57.7 38.15 55.84 36.8 58.14 36.8 58.85 34.62"/><polygon class="e" points="51.97 41.51 52.68 43.69 54.98 43.69 53.12 45.04 53.83 47.23 51.97 45.88 50.11 47.23 50.82 45.04 48.97 43.69 51.26 43.69 51.97 41.51"/><polygon class="e" points="42.52 44.05 43.23 46.23 45.52 46.23 43.67 47.58 44.37 49.77 42.52 48.42 40.66 49.77 41.37 47.58 39.51 46.23 41.81 46.23 42.52 44.05"/><polygon class="e" points="33.07 41.51 33.78 43.69 36.07 43.69 34.22 45.04 34.93 47.23 33.07 45.88 31.21 47.23 31.92 45.04 30.06 43.69 32.36 43.69 33.07 41.51"/><polygon class="e" points="26.19 34.62 26.9 36.8 29.19 36.8 27.34 38.15 28.05 40.33 26.19 38.99 24.33 40.33 25.04 38.15 23.19 36.8 25.48 36.8 26.19 34.62"/><polygon class="e" points="23.67 25.2 24.38 27.38 26.67 27.38 24.82 28.73 25.52 30.92 23.67 29.57 21.81 30.92 22.52 28.73 20.66 27.38 22.96 27.38 23.67 25.2"/><polygon class="e" points="26.19 15.78 26.9 17.96 29.19 17.97 27.34 19.32 28.05 21.5 26.19 20.15 24.33 21.5 25.04 19.32 23.19 17.97 25.48 17.96 26.19 15.78"/><polygon class="e" points="33.07 8.89 33.78 11.07 36.07 11.07 34.22 12.42 34.93 14.61 33.07 13.26 31.21 14.61 31.92 12.42 30.06 11.07 32.36 11.07 33.07 8.89"/></g><g><path class="f" d="M84.38,74.11c-.29-.33-.69-.5-1.18-.5s-.89,.17-1.18,.51c-.3,.34-.45,.81-.45,1.41s.15,1.06,.43,1.4c.29,.34,.69,.52,1.2,.52s.89-.17,1.18-.5c.29-.33,.44-.81,.44-1.42s-.15-1.08-.44-1.42Zm-.48,2.43c-.16,.22-.4,.33-.7,.33s-.54-.11-.71-.34c-.17-.23-.25-.56-.25-1.01s.08-.8,.25-1.02c.16-.22,.4-.33,.71-.33s.54,.11,.7,.33c.16,.22,.25,.56,.25,1.02s-.08,.79-.25,1.01Z"/><polygon class="f" points=".29 77.35 3.34 77.35 3.34 76.73 .98 76.73 .98 75.01 3.18 75.01 3.18 74.39 .98 74.39 .98 73.13 3.34 73.13 3.34 72.51 .29 72.51 .29 77.35"/><path class="f" d="M6.19,76.4c-.13,.12-.28,.22-.44,.3-.16,.08-.32,.12-.46,.12-.15,0-.27-.02-.35-.06-.08-.04-.14-.1-.19-.19-.05-.09-.08-.2-.09-.32-.01-.12-.02-.28-.02-.47v-2.07h-.66v2.35c0,.24,.03,.45,.09,.62,.06,.17,.14,.32,.25,.43,.11,.11,.23,.2,.37,.25,.14,.05,.29,.08,.45,.08,.21,0,.4-.04,.57-.13,.15-.08,.32-.19,.49-.34v.37h.66v-3.64h-.66v2.69Z"/><path class="f" d="M9.56,73.71s-.08,0-.14,0c-.16,0-.32,.04-.49,.12-.15,.08-.33,.2-.54,.38v-.5h-.66v3.64h.66v-2.56c.14-.13,.29-.23,.44-.3,.16-.07,.32-.1,.47-.1,.07,0,.13,0,.18,0,.05,0,.09,.01,.14,.02h.07v-.68h-.02s-.07-.02-.11-.02Z"/><path class="f" d="M11.51,73.61c-.49,0-.89,.17-1.18,.51-.3,.34-.45,.81-.45,1.41s.15,1.06,.43,1.4c.29,.34,.69,.52,1.2,.52s.89-.17,1.18-.5c.29-.33,.44-.81,.44-1.42s-.15-1.08-.44-1.42c-.29-.33-.69-.5-1.18-.5Zm.7,2.93c-.16,.22-.4,.33-.7,.33s-.54-.11-.71-.34c-.17-.23-.25-.56-.25-1.01s.08-.8,.25-1.02c.16-.22,.4-.33,.71-.33s.54,.11,.7,.33c.16,.22,.25,.56,.25,1.02s-.08,.79-.25,1.01Z"/><path class="f" d="M15.15,73.61c-.49,0-.89,.17-1.18,.51-.3,.34-.45,.81-.45,1.41s.15,1.06,.43,1.4c.29,.34,.69,.52,1.2,.52s.89-.17,1.18-.5c.29-.33,.44-.81,.44-1.42s-.15-1.08-.44-1.42c-.29-.33-.69-.5-1.18-.5Zm.7,2.93c-.16,.22-.4,.33-.7,.33s-.54-.11-.71-.34c-.17-.23-.25-.56-.25-1.01s.08-.8,.25-1.02c.16-.22,.4-.33,.71-.33s.54,.11,.7,.33c.16,.22,.25,.56,.25,1.02s-.08,.79-.25,1.01Z"/><path class="f" d="M19.13,73.61c-.22,0-.42,.05-.61,.14-.17,.08-.32,.18-.46,.3v-.34h-.66v4.96h.66v-1.48c.13,.07,.26,.13,.39,.17,.14,.04,.3,.06,.48,.06,.44,0,.81-.18,1.1-.54,.29-.36,.43-.84,.43-1.44,0-.55-.12-1-.35-1.33-.23-.33-.57-.5-.98-.5Zm.4,2.88c-.17,.22-.4,.33-.71,.33-.14,0-.27-.01-.38-.04-.11-.03-.24-.08-.39-.15v-2c.14-.11,.29-.21,.44-.28,.16-.07,.32-.11,.48-.11,.29,0,.49,.11,.61,.33,.13,.22,.19,.54,.19,.94,0,.43-.09,.76-.25,.99Z"/><path class="f" d="M23.36,73.89c-.14-.1-.29-.17-.47-.21-.17-.04-.38-.06-.63-.06-.2,0-.41,.02-.62,.06-.21,.04-.37,.07-.48,.11h-.02v.67h.07c.19-.08,.37-.14,.56-.18s.35-.06,.49-.06c.12,0,.23,0,.34,.02,.11,.01,.2,.05,.27,.09,.07,.04,.13,.11,.17,.19,.04,.08,.06,.19,.06,.33v.09c-.31,.02-.6,.04-.86,.08-.27,.04-.52,.1-.72,.19-.23,.1-.4,.25-.51,.43-.11,.18-.16,.4-.16,.65,0,.16,.03,.32,.09,.47,.06,.15,.14,.27,.24,.37,.1,.1,.22,.18,.36,.24s.28,.09,.43,.09c.18,0,.33-.02,.43-.05,.1-.03,.21-.07,.31-.13,.08-.04,.16-.09,.24-.16,.06-.05,.11-.09,.15-.12v.35h.65v-2.48c0-.23-.03-.42-.1-.58-.07-.16-.17-.29-.3-.39Zm-.26,2.53c-.13,.11-.27,.21-.42,.29-.15,.08-.32,.12-.5,.12-.21,0-.38-.05-.49-.15-.11-.1-.16-.25-.16-.45,0-.17,.05-.31,.15-.41,.1-.1,.23-.17,.39-.22,.13-.04,.31-.07,.53-.09,.2-.02,.38-.04,.51-.05v.95Z"/><path class="f" d="M26.34,73.61c-.2,0-.39,.04-.57,.13-.16,.08-.33,.19-.49,.33v-.36h-.66v3.64h.66v-2.69c.15-.12,.3-.22,.45-.3,.15-.08,.31-.12,.45-.12s.26,.02,.35,.06,.15,.1,.19,.19c.04,.08,.07,.19,.09,.33,.02,.14,.02,.29,.02,.46v2.07h.66v-2.35c0-.45-.1-.79-.3-1.03-.2-.24-.49-.36-.85-.36Z"/><path class="f" d="M32.73,73.89c-.14-.1-.29-.17-.47-.21-.17-.04-.38-.06-.63-.06-.2,0-.41,.02-.62,.06-.21,.04-.37,.07-.48,.11h-.02v.67h.07c.19-.08,.37-.14,.56-.18s.35-.06,.49-.06c.12,0,.23,0,.34,.02,.11,.01,.2,.05,.27,.09,.07,.04,.13,.11,.17,.19,.04,.08,.06,.19,.06,.33v.09c-.31,.02-.6,.04-.86,.08-.27,.04-.52,.1-.72,.19-.23,.1-.4,.25-.51,.43-.11,.18-.16,.4-.16,.65,0,.16,.03,.32,.09,.47,.06,.15,.14,.27,.24,.37,.1,.1,.22,.18,.36,.24s.28,.09,.43,.09c.18,0,.33-.02,.43-.05,.1-.03,.21-.07,.31-.13,.08-.04,.16-.09,.24-.16,.06-.05,.11-.09,.15-.12v.35h.65v-2.48c0-.23-.03-.42-.1-.58-.07-.16-.17-.29-.3-.39Zm-.26,2.53c-.13,.11-.27,.21-.42,.29-.15,.08-.32,.12-.5,.12-.21,0-.38-.05-.49-.15-.11-.1-.16-.25-.16-.45,0-.17,.05-.31,.15-.41,.1-.1,.23-.17,.39-.22,.13-.04,.31-.07,.53-.09,.2-.02,.38-.04,.51-.05v.95Z"/><rect class="f" x="34" y="72.3" width=".66" height="5.05"/><path class="f" d="M37.74,76.98v.37h.66v-3.64h-.66v2.69c-.13,.12-.28,.22-.44,.3-.16,.08-.32,.12-.46,.12-.15,0-.27-.02-.35-.06-.08-.04-.14-.1-.19-.19-.05-.09-.08-.2-.09-.32-.01-.12-.02-.28-.02-.47v-2.07h-.66v2.35c0,.24,.03,.45,.09,.62,.06,.17,.14,.32,.25,.43,.11,.11,.23,.2,.37,.25,.14,.05,.29,.08,.45,.08,.21,0,.4-.04,.57-.13,.15-.08,.32-.19,.49-.34Z"/><path class="f" d="M41.84,77.23c.1-.04,.19-.08,.26-.1h.02v-.71h-.08s-.11,.09-.18,.13c-.07,.05-.17,.09-.27,.14-.1,.05-.22,.08-.34,.11-.12,.03-.25,.04-.38,.04-.36,0-.65-.11-.85-.32-.2-.21-.3-.52-.31-.91h2.48v-.35c0-.29-.03-.54-.1-.74-.07-.2-.17-.37-.3-.51-.13-.14-.29-.24-.46-.31-.17-.07-.38-.1-.6-.1-.5,0-.91,.18-1.22,.53-.31,.35-.47,.82-.47,1.41s.16,1.07,.48,1.39c.32,.33,.77,.49,1.35,.49,.15,0,.27,0,.37-.03,.1-.02,.2-.04,.32-.07,.08-.02,.18-.06,.29-.1Zm-2.05-2.49c.05-.11,.11-.21,.2-.3,.09-.09,.19-.16,.3-.2s.24-.07,.4-.07,.29,.02,.4,.07c.11,.04,.19,.11,.26,.2,.06,.08,.11,.18,.14,.29,.03,.11,.05,.24,.06,.39h-1.84c.01-.14,.04-.26,.09-.36Z"/><polygon class="f" points="45.68 73.71 44.85 73.71 43.47 75.18 43.47 72.3 42.81 72.3 42.81 77.35 43.47 77.35 43.47 75.83 43.68 75.63 45 77.34 45 77.35 45.87 77.35 44.17 75.24 45.63 73.76 45.68 73.71"/><path class="f" d="M48.93,77.12v-.7h-.08s-.11,.09-.18,.13c-.07,.05-.17,.09-.27,.14-.1,.05-.22,.08-.34,.11-.12,.03-.25,.04-.38,.04-.36,0-.65-.11-.85-.32-.2-.21-.3-.52-.31-.91h2.48v-.35c0-.29-.03-.54-.1-.74-.07-.2-.17-.37-.3-.51-.13-.14-.29-.24-.46-.31-.17-.07-.38-.1-.6-.1-.5,0-.91,.18-1.22,.53-.31,.35-.47,.82-.47,1.41s.16,1.07,.48,1.39c.32,.33,.77,.49,1.35,.49,.15,0,.27,0,.37-.03,.1-.02,.2-.04,.32-.07,.08-.02,.18-.06,.29-.1,.1-.04,.19-.08,.26-.1h.02Zm-2.33-2.39c.05-.11,.11-.21,.2-.3,.09-.09,.19-.16,.3-.2s.24-.07,.4-.07,.29,.02,.4,.07c.11,.04,.19,.11,.26,.2,.06,.08,.11,.18,.14,.29,.03,.11,.05,.24,.06,.39h-1.84c.01-.14,.04-.26,.09-.36Z"/><path class="f" d="M52.49,77.35v-2.35c0-.45-.1-.79-.3-1.03-.2-.24-.49-.36-.85-.36-.2,0-.39,.04-.57,.13-.16,.08-.33,.19-.49,.33v-1.77h-.66v5.05h.66v-2.69c.15-.12,.3-.22,.45-.3,.15-.08,.31-.12,.45-.12s.26,.02,.35,.06,.15,.1,.19,.19c.04,.08,.07,.19,.09,.33,.02,.14,.02,.29,.02,.46v2.07h.66Z"/><rect class="f" x="53.36" y="73.71" width=".66" height="3.64"/><rect class="f" x="53.32" y="72.48" width=".74" height=".68"/><path class="f" d="M57.36,78.67h.71l1.94-4.92v-.04h-.67l-.96,2.6-.95-2.58v-.02h-1.79v-1.03h-.66v1.03h-.41v.56h.41v1.96c0,.41,.1,.72,.28,.91,.19,.19,.45,.29,.79,.29,.1,0,.21,0,.33-.03,.12-.02,.23-.04,.35-.08h.02v-.6h-.07s-.1,.04-.2,.07c-.09,.03-.18,.04-.28,.04-.13,0-.24-.02-.32-.05-.08-.03-.13-.09-.16-.16-.04-.08-.06-.17-.07-.27,0-.1,0-.24,0-.42v-1.68h1.11v-.46l1.28,3.34-.64,1.49-.02,.04Z"/><path class="f" d="M62.08,77.35c.16-.06,.31-.14,.44-.25,.12-.1,.21-.22,.28-.36,.06-.14,.09-.29,.09-.45,0-.27-.07-.49-.21-.65-.14-.16-.34-.27-.61-.34-.12-.03-.24-.06-.35-.08-.11-.02-.21-.05-.3-.07-.17-.05-.3-.1-.38-.17-.07-.07-.11-.17-.11-.32,0-.16,.06-.28,.19-.36,.13-.08,.3-.12,.49-.12s.38,.04,.56,.1c.19,.07,.36,.17,.51,.28h.08v-.68h-.01c-.14-.08-.31-.15-.51-.2-.2-.05-.41-.07-.61-.07-.41,0-.74,.1-.99,.31-.25,.21-.38,.48-.38,.81,0,.24,.06,.45,.19,.62,.13,.17,.33,.3,.61,.38,.1,.03,.22,.06,.35,.08,.12,.03,.22,.05,.3,.07,.19,.05,.33,.11,.4,.18,.07,.07,.11,.17,.11,.3,0,.11-.02,.19-.05,.24-.03,.05-.08,.1-.15,.15-.05,.03-.13,.06-.23,.08-.25,.05-.47,.04-.68-.02-.12-.04-.23-.08-.33-.12-.11-.05-.21-.1-.27-.15-.07-.05-.13-.09-.18-.13h-.08v.72h.01c.14,.08,.31,.15,.52,.22,.21,.06,.44,.1,.68,.1s.45-.03,.62-.09Z"/><path class="f" d="M65.22,74.39s.09,.01,.14,.02h.07v-.68h-.02s-.07-.02-.11-.02c-.03,0-.08,0-.14,0-.16,0-.32,.04-.49,.12-.15,.08-.33,.2-.54,.38v-.5h-.66v3.64h.66v-2.56c.14-.13,.29-.23,.44-.3,.16-.07,.32-.1,.47-.1,.07,0,.13,0,.18,0Z"/><path class="f" d="M67.79,76.99v.35h.65v-2.48c0-.23-.03-.42-.1-.58-.07-.16-.17-.29-.3-.39-.14-.1-.29-.17-.47-.21-.17-.04-.38-.06-.63-.06-.2,0-.41,.02-.62,.06-.21,.04-.37,.07-.48,.11h-.02v.67h.07c.19-.08,.37-.14,.56-.18s.35-.06,.49-.06c.12,0,.23,0,.34,.02,.11,.01,.2,.05,.27,.09,.07,.04,.13,.11,.17,.19,.04,.08,.06,.19,.06,.33v.09c-.31,.02-.6,.04-.86,.08-.27,.04-.52,.1-.72,.19-.23,.1-.4,.25-.51,.43-.11,.18-.16,.4-.16,.65,0,.16,.03,.32,.09,.47,.06,.15,.14,.27,.24,.37,.1,.1,.22,.18,.36,.24s.28,.09,.43,.09c.18,0,.33-.02,.43-.05,.1-.03,.21-.07,.31-.13,.08-.04,.16-.09,.24-.16,.06-.05,.11-.09,.15-.12Zm-.42-.28c-.15,.08-.32,.12-.5,.12-.21,0-.38-.05-.49-.15-.11-.1-.16-.25-.16-.45,0-.17,.05-.31,.15-.41,.1-.1,.23-.17,.39-.22,.13-.04,.31-.07,.53-.09,.2-.02,.38-.04,.51-.05v.95c-.13,.11-.27,.21-.42,.29Z"/><path class="f" d="M69.96,74.66c.15-.12,.3-.22,.45-.3,.15-.08,.31-.12,.45-.12s.26,.02,.35,.06,.15,.1,.19,.19c.04,.08,.07,.19,.09,.33,.02,.14,.02,.29,.02,.46v2.07h.66v-2.35c0-.45-.1-.79-.3-1.03-.2-.24-.49-.36-.85-.36-.2,0-.39,.04-.57,.13-.16,.08-.33,.19-.49,.33v-1.77h-.66v5.05h.66v-2.69Z"/><path class="f" d="M75.3,73.89c-.14-.1-.29-.17-.47-.21-.17-.04-.38-.06-.63-.06-.2,0-.41,.02-.62,.06-.21,.04-.37,.07-.48,.11h-.02v.67h.07c.19-.08,.37-.14,.56-.18s.35-.06,.49-.06c.12,0,.23,0,.34,.02,.11,.01,.2,.05,.27,.09,.07,.04,.13,.11,.17,.19,.04,.08,.06,.19,.06,.33v.09c-.31,.02-.6,.04-.86,.08-.27,.04-.52,.1-.72,.19-.23,.1-.4,.25-.51,.43-.11,.18-.16,.4-.16,.65,0,.16,.03,.32,.09,.47,.06,.15,.14,.27,.24,.37,.1,.1,.22,.18,.36,.24s.28,.09,.43,.09c.18,0,.33-.02,.43-.05,.1-.03,.21-.07,.31-.13,.08-.04,.16-.09,.24-.16,.06-.05,.11-.09,.15-.12v.35h.65v-2.48c0-.23-.03-.42-.1-.58-.07-.16-.17-.29-.3-.39Zm-.26,2.53c-.13,.11-.27,.21-.42,.29-.15,.08-.32,.12-.5,.12-.21,0-.38-.05-.49-.15-.11-.1-.16-.25-.16-.45,0-.17,.05-.31,.15-.41,.1-.1,.23-.17,.39-.22,.13-.04,.31-.07,.53-.09,.2-.02,.38-.04,.51-.05v.95Z"/><path class="f" d="M78.16,75.3c-.12-.03-.24-.06-.35-.08-.11-.02-.21-.05-.3-.07-.17-.05-.3-.1-.38-.17-.07-.07-.11-.17-.11-.32,0-.16,.06-.28,.19-.36,.13-.08,.3-.12,.49-.12s.38,.04,.56,.1c.19,.07,.36,.17,.51,.28h.08v-.68h-.01c-.14-.08-.31-.15-.51-.2-.2-.05-.41-.07-.61-.07-.41,0-.74,.1-.99,.31-.25,.21-.38,.48-.38,.81,0,.24,.06,.45,.19,.62,.13,.17,.33,.3,.61,.38,.1,.03,.22,.06,.35,.08,.12,.03,.22,.05,.3,.07,.19,.05,.33,.11,.4,.18,.07,.07,.11,.17,.11,.3,0,.11-.02,.19-.05,.24-.03,.05-.08,.1-.15,.15-.05,.03-.13,.06-.23,.08-.25,.05-.47,.04-.68-.02-.12-.04-.23-.08-.33-.12-.11-.05-.21-.1-.27-.15-.07-.05-.13-.09-.18-.13h-.08v.72h.01c.14,.08,.31,.15,.52,.22,.21,.06,.44,.1,.68,.1s.45-.03,.62-.09c.16-.06,.31-.14,.44-.25,.12-.1,.21-.22,.28-.36,.06-.14,.09-.29,.09-.45,0-.27-.07-.49-.21-.65-.14-.16-.34-.27-.61-.34Z"/><path class="f" d="M80.25,72.68h-.66v1.03h-.41v.56h.41v1.96c0,.41,.1,.72,.28,.91,.19,.19,.45,.29,.79,.29,.1,0,.21,0,.33-.03,.12-.02,.23-.04,.35-.08h.02v-.6h-.07s-.1,.04-.2,.07c-.09,.03-.18,.04-.28,.04-.13,0-.24-.02-.32-.05-.08-.03-.13-.09-.16-.16-.04-.08-.06-.17-.07-.27,0-.1,0-.24,0-.42v-1.68h1.11v-.56h-1.11v-1.03Z"/></g><g><path class="f" d="M.29,68.2v-8.71H5.74v1.03H1.45v2.39h4v1.03H1.45v3.24H5.74v1.03H.29Z"/><path class="f" d="M12.02,68.2h-1.1v-.73c-.34,.3-.66,.52-.97,.68s-.64,.23-1.02,.23c-.29,0-.55-.05-.8-.14s-.47-.24-.66-.44c-.19-.2-.33-.46-.44-.77-.1-.31-.16-.68-.16-1.12v-4.24h1.1v3.72c0,.35,.01,.63,.04,.86,.03,.23,.08,.43,.17,.6,.09,.17,.21,.29,.37,.37,.15,.08,.38,.12,.66,.12,.27,0,.56-.08,.86-.23,.3-.15,.58-.34,.84-.56v-4.88h1.1v6.54Z"/><path class="f" d="M17.08,62.85h-.06c-.08-.02-.17-.04-.26-.04s-.2,0-.33,0c-.3,0-.59,.06-.88,.19s-.57,.32-.83,.57v4.64h-1.1v-6.54h1.1v.97c.4-.35,.75-.61,1.05-.75,.3-.15,.59-.22,.87-.22,.11,0,.2,0,.25,0,.06,0,.12,.01,.19,.03v1.15Z"/><path class="f" d="M23.25,64.94c0,1.1-.27,1.95-.8,2.55-.53,.6-1.24,.9-2.12,.9s-1.62-.31-2.15-.93-.78-1.46-.78-2.52,.27-1.94,.8-2.54,1.24-.91,2.12-.91,1.59,.3,2.12,.9c.53,.6,.8,1.45,.8,2.55Zm-1.14,0c0-.85-.15-1.48-.46-1.89-.31-.41-.75-.62-1.32-.62s-1.02,.21-1.33,.62c-.31,.41-.47,1.04-.47,1.89s.16,1.44,.47,1.86c.31,.42,.75,.63,1.33,.63s1-.21,1.31-.62c.31-.42,.47-1.04,.47-1.88Z"/><path class="f" d="M29.76,64.94c0,1.1-.27,1.95-.8,2.55-.53,.6-1.24,.9-2.12,.9s-1.62-.31-2.15-.93-.78-1.46-.78-2.52,.27-1.94,.8-2.54,1.24-.91,2.12-.91,1.59,.3,2.12,.9c.53,.6,.8,1.45,.8,2.55Zm-1.14,0c0-.85-.15-1.48-.46-1.89-.31-.41-.75-.62-1.32-.62s-1.02,.21-1.33,.62c-.31,.41-.47,1.04-.47,1.89s.16,1.44,.47,1.86c.31,.42,.75,.63,1.33,.63s1-.21,1.31-.62c.31-.42,.47-1.04,.47-1.88Z"/><path class="f" d="M36.37,64.76c0,1.09-.26,1.96-.78,2.6s-1.18,.97-1.98,.97c-.32,0-.61-.04-.86-.11s-.51-.19-.77-.35v2.74h-1.1v-8.95h1.1v.68c.27-.25,.58-.45,.91-.62,.33-.17,.7-.25,1.09-.25,.75,0,1.33,.3,1.75,.89,.42,.59,.63,1.39,.63,2.39Zm-1.14,.12c0-.75-.12-1.32-.36-1.74-.24-.41-.62-.62-1.16-.62-.31,0-.61,.07-.9,.21s-.57,.32-.83,.54v3.7c.29,.14,.54,.24,.74,.29,.21,.05,.44,.08,.71,.08,.57,0,1.01-.21,1.33-.63,.32-.42,.47-1.03,.47-1.83Z"/><path class="f" d="M41.16,67.51c-.09,.07-.21,.16-.36,.28-.15,.12-.3,.21-.44,.28-.2,.1-.38,.18-.56,.23-.18,.05-.44,.08-.76,.08-.27,0-.52-.05-.77-.15s-.45-.24-.64-.43c-.18-.18-.32-.4-.42-.67-.11-.26-.16-.54-.16-.83,0-.45,.1-.84,.29-1.16,.19-.32,.49-.57,.91-.76,.37-.17,.8-.28,1.3-.35,.5-.06,1.04-.11,1.62-.14v-.21c0-.26-.04-.46-.12-.62s-.19-.28-.33-.37c-.14-.09-.31-.15-.52-.18-.2-.03-.41-.04-.63-.04-.25,0-.55,.04-.9,.11-.34,.08-.69,.19-1.03,.33h-.06v-1.12c.2-.06,.49-.12,.87-.19,.38-.07,.75-.11,1.12-.11,.45,0,.83,.04,1.14,.11,.31,.07,.58,.2,.83,.38,.24,.18,.42,.41,.53,.7,.12,.29,.18,.63,.18,1.04v4.47h-1.09v-.7Zm0-.91v-1.81c-.26,.02-.59,.06-.99,.1-.4,.04-.72,.1-.97,.17-.29,.09-.53,.23-.73,.41-.19,.19-.29,.44-.29,.78,0,.37,.11,.66,.32,.85,.21,.19,.52,.29,.92,.29,.35,0,.66-.08,.94-.23,.28-.15,.54-.33,.79-.55Z"/><path class="f" d="M48.94,68.2h-1.1v-3.72c0-.3-.01-.58-.04-.84s-.08-.47-.17-.62c-.09-.16-.21-.29-.37-.37-.16-.08-.38-.12-.66-.12s-.56,.07-.85,.22-.57,.34-.85,.57v4.88h-1.1v-6.54h1.1v.73c.33-.29,.65-.52,.97-.67,.32-.16,.66-.23,1.01-.23,.64,0,1.15,.21,1.51,.63,.36,.42,.54,1.04,.54,1.84v4.24Z"/><path class="f" d="M59.32,68.2h-1.1v-.73c-.34,.3-.66,.52-.97,.68s-.64,.23-1.02,.23c-.29,0-.55-.05-.8-.14s-.47-.24-.66-.44c-.19-.2-.33-.46-.44-.77-.1-.31-.16-.68-.16-1.12v-4.24h1.1v3.72c0,.35,.01,.63,.04,.86,.03,.23,.08,.43,.17,.6,.09,.17,.21,.29,.37,.37,.15,.08,.38,.12,.66,.12,.27,0,.56-.08,.86-.23,.3-.15,.58-.34,.84-.56v-4.88h1.1v6.54Z"/><path class="f" d="M66.05,68.2h-1.1v-3.72c0-.3-.01-.58-.04-.84s-.08-.47-.17-.62c-.09-.16-.21-.29-.37-.37-.16-.08-.38-.12-.66-.12s-.56,.07-.85,.22-.57,.34-.85,.57v4.88h-1.1v-6.54h1.1v.73c.33-.29,.65-.52,.97-.67,.32-.16,.66-.23,1.01-.23,.64,0,1.15,.21,1.51,.63,.36,.42,.54,1.04,.54,1.84v4.24Z"/><path class="f" d="M68.8,60.57h-1.25v-1.14h1.25v1.14Zm-.08,7.63h-1.1v-6.54h1.1v6.54Z"/><path class="f" d="M75.71,64.94c0,1.1-.27,1.95-.8,2.55-.53,.6-1.24,.9-2.12,.9s-1.62-.31-2.15-.93-.78-1.46-.78-2.52,.27-1.94,.8-2.54,1.24-.91,2.12-.91,1.59,.3,2.12,.9c.53,.6,.8,1.45,.8,2.55Zm-1.14,0c0-.85-.15-1.48-.46-1.89-.31-.41-.75-.62-1.32-.62s-1.02,.21-1.33,.62c-.31,.41-.47,1.04-.47,1.89s.16,1.44,.47,1.86c.31,.42,.75,.63,1.33,.63s1-.21,1.31-.62c.31-.42,.47-1.04,.47-1.88Z"/><path class="f" d="M81.98,68.2h-1.1v-3.72c0-.3-.01-.58-.04-.84s-.08-.47-.17-.62c-.09-.16-.21-.29-.37-.37-.16-.08-.38-.12-.66-.12s-.56,.07-.85,.22-.57,.34-.85,.57v4.88h-1.1v-6.54h1.1v.73c.33-.29,.65-.52,.97-.67,.32-.16,.66-.23,1.01-.23,.64,0,1.15,.21,1.51,.63,.36,.42,.54,1.04,.54,1.84v4.24Z"/><path class="f" d="M84.73,60.57h-1.25v-1.14h1.25v1.14Zm-.08,7.63h-1.1v-6.54h1.1v6.54Z"/></g></g></g></svg>