<?xml version="1.0" encoding="UTF-8"?><svg xmlns="http://www.w3.org/2000/svg" viewBox="0 0 85.04 85.47"><defs><style>.d{fill:#034ea2;}.e{fill:#fff200;}.f{fill:#fff;}</style></defs><g id="a"/><g id="b"><g id="c"><g><rect class="d" width="85.04" height="56.69"/><polygon class="e" points="42.52 6.35 43.23 8.53 45.52 8.53 43.67 9.88 44.38 12.07 42.52 10.72 40.66 12.07 41.37 9.88 39.51 8.53 41.81 8.53 42.52 6.35"/><polygon class="e" points="51.97 8.89 52.68 11.07 54.98 11.07 53.12 12.42 53.83 14.61 51.97 13.26 50.11 14.61 50.82 12.42 48.97 11.07 51.26 11.07 51.97 8.89"/><polygon class="e" points="58.85 15.78 59.56 17.96 61.85 17.97 60 19.32 60.71 21.5 58.85 20.15 56.99 21.5 57.7 19.32 55.84 17.97 58.14 17.96 58.85 15.78"/><polygon class="e" points="61.37 25.2 62.08 27.38 64.37 27.38 62.52 28.73 63.23 30.92 61.37 29.57 59.51 30.92 60.22 28.73 58.37 27.38 60.66 27.38 61.37 25.2"/><polygon class="e" points="58.85 34.62 59.56 36.8 61.85 36.8 60 38.15 60.71 40.33 58.85 38.99 56.99 40.33 57.7 38.15 55.84 36.8 58.14 36.8 58.85 34.62"/><polygon class="e" points="51.97 41.51 52.68 43.69 54.98 43.69 53.12 45.04 53.83 47.23 51.97 45.88 50.11 47.23 50.82 45.04 48.97 43.69 51.26 43.69 51.97 41.51"/><polygon class="e" points="42.52 44.05 43.23 46.23 45.52 46.23 43.67 47.58 44.37 49.77 42.52 48.42 40.66 49.77 41.37 47.58 39.51 46.23 41.81 46.23 42.52 44.05"/><polygon class="e" points="33.07 41.51 33.78 43.69 36.07 43.69 34.22 45.04 34.93 47.23 33.07 45.88 31.21 47.23 31.92 45.04 30.06 43.69 32.36 43.69 33.07 41.51"/><polygon class="e" points="26.19 34.62 26.9 36.8 29.19 36.8 27.34 38.15 28.05 40.33 26.19 38.99 24.33 40.33 25.04 38.15 23.19 36.8 25.48 36.8 26.19 34.62"/><polygon class="e" points="23.67 25.2 24.38 27.38 26.67 27.38 24.82 28.73 25.52 30.92 23.67 29.57 21.81 30.92 22.52 28.73 20.66 27.38 22.96 27.38 23.67 25.2"/><polygon class="e" points="26.19 15.78 26.9 17.96 29.19 17.97 27.34 19.32 28.05 21.5 26.19 20.15 24.33 21.5 25.04 19.32 23.19 17.97 25.48 17.96 26.19 15.78"/><polygon class="e" points="33.07 8.89 33.78 11.07 36.07 11.07 34.22 12.42 34.93 14.61 33.07 13.26 31.21 14.61 31.92 12.42 30.06 11.07 32.36 11.07 33.07 8.89"/></g><g><polygon class="f" points="3.48 76.51 1.15 76.51 1.15 74.85 3.32 74.85 3.32 74.19 1.15 74.19 1.15 73 3.48 73 3.48 72.34 .42 72.34 .42 77.17 3.48 77.17 3.48 76.51"/><path class="f" d="M5.26,77.26c.21,0,.4-.04,.57-.13,.14-.07,.29-.17,.45-.3v.33h.7v-3.64h-.7v2.67c-.13,.11-.27,.21-.43,.28-.16,.08-.31,.12-.44,.12-.15,0-.26-.02-.34-.06-.07-.04-.13-.1-.18-.18-.05-.09-.08-.19-.09-.31-.01-.12-.02-.28-.02-.46v-2.07h-.7v2.35c0,.24,.03,.45,.09,.62,.06,.17,.14,.32,.25,.43,.11,.12,.23,.2,.38,.25,.14,.05,.29,.08,.45,.08Z"/><path class="f" d="M8.54,74.62c.13-.12,.27-.22,.42-.29,.15-.07,.31-.1,.46-.1,.07,0,.13,0,.18,0,.05,0,.09,0,.13,.02h.1v-.71h-.04s-.07-.02-.1-.02c-.03,0-.08,0-.14,0-.16,0-.33,.04-.49,.12-.14,.07-.31,.19-.5,.34v-.47h-.7v3.64h.7v-2.54Z"/><path class="f" d="M11.67,77.26c.49,0,.89-.17,1.19-.5,.29-.33,.44-.81,.44-1.42s-.15-1.08-.44-1.42c-.3-.34-.7-.51-1.19-.51s-.89,.17-1.19,.51c-.3,.34-.45,.81-.45,1.41s.15,1.06,.44,1.4c.29,.35,.7,.52,1.2,.52Zm-.68-2.91c.16-.21,.38-.31,.68-.31s.52,.1,.67,.31c.16,.21,.24,.55,.24,.99s-.08,.77-.24,.99c-.16,.21-.38,.32-.67,.32s-.52-.11-.68-.32c-.16-.22-.24-.55-.24-.98s.08-.78,.24-.99Z"/><path class="f" d="M16.63,73.93c-.24-.33-.57-.5-.99-.5-.22,0-.43,.05-.61,.14-.15,.07-.29,.17-.42,.27v-.31h-.7v4.95h.7v-1.45c.12,.07,.24,.12,.35,.15,.14,.04,.3,.06,.48,.06,.44,0,.82-.18,1.11-.54,.29-.36,.43-.84,.43-1.44,0-.55-.12-1-.35-1.32Zm-.37,1.39c0,.42-.08,.75-.25,.96-.16,.22-.39,.32-.68,.32-.14,0-.26-.01-.37-.04-.1-.02-.22-.07-.36-.14v-1.95c.13-.11,.27-.2,.42-.27,.15-.07,.31-.11,.47-.11,.27,0,.46,.1,.58,.31,.12,.21,.19,.52,.19,.92Z"/><path class="f" d="M20.33,76.21s-.11,.08-.18,.12c-.07,.04-.16,.09-.27,.14-.1,.04-.21,.08-.33,.11-.12,.03-.25,.04-.37,.04-.35,0-.63-.11-.82-.31-.19-.2-.29-.49-.3-.86h2.46v-.37c0-.29-.03-.54-.1-.74-.07-.2-.17-.37-.3-.51-.13-.14-.29-.24-.46-.31-.18-.06-.38-.1-.6-.1-.5,0-.91,.18-1.22,.53-.31,.35-.47,.82-.47,1.41s.16,1.07,.48,1.39c.32,.33,.77,.49,1.35,.49,.15,0,.27,0,.37-.03,.09-.02,.2-.04,.32-.07,.08-.02,.18-.06,.28-.1,.1-.04,.19-.08,.26-.1h.03v-.75h-.12Zm-2.19-1.63c.04-.11,.11-.21,.19-.29,.09-.09,.18-.15,.29-.2,.1-.04,.23-.07,.38-.07s.28,.02,.39,.07c.1,.04,.19,.11,.25,.19,.06,.08,.11,.17,.14,.28,.03,.1,.05,.22,.05,.35h-1.77c.01-.12,.04-.23,.08-.33Z"/><path class="f" d="M23.39,73.71c-.14-.1-.29-.17-.47-.22-.17-.04-.38-.06-.63-.06-.2,0-.41,.02-.62,.06-.22,.04-.37,.08-.48,.11h-.04v.7h.1c.18-.08,.37-.14,.55-.18,.18-.04,.34-.06,.47-.06,.11,0,.23,0,.33,.02,.1,.01,.19,.04,.26,.09,.07,.04,.12,.1,.16,.18,.04,.08,.06,.18,.06,.32v.07c-.31,.02-.58,.04-.83,.08-.28,.04-.52,.1-.72,.19-.23,.11-.41,.25-.51,.43-.11,.18-.16,.4-.16,.65,0,.16,.03,.32,.09,.47,.06,.15,.14,.27,.24,.38,.1,.1,.23,.19,.36,.24,.14,.06,.28,.09,.44,.09,.19,0,.33-.02,.43-.05,.1-.03,.21-.07,.31-.13,.08-.04,.16-.09,.24-.16,.04-.03,.08-.06,.11-.09v.33h.69v-2.47c0-.23-.03-.42-.1-.58-.07-.16-.17-.3-.31-.4Zm-.29,1.61v.91c-.12,.11-.26,.2-.4,.28-.15,.08-.3,.12-.49,.12-.21,0-.36-.05-.47-.14-.1-.09-.16-.24-.16-.42,0-.17,.05-.29,.14-.38,.1-.09,.22-.17,.37-.21,.13-.04,.3-.07,.52-.09,.19-.02,.35-.03,.48-.05Z"/><path class="f" d="M25.32,74.49c.14-.12,.29-.21,.43-.29,.15-.08,.3-.11,.44-.11s.25,.02,.33,.06c.08,.04,.14,.1,.18,.18,.04,.08,.07,.19,.08,.32,.02,.14,.02,.29,.02,.45v2.07h.7v-2.35c0-.45-.1-.79-.31-1.03-.21-.24-.49-.36-.86-.36-.2,0-.39,.04-.57,.13-.15,.07-.3,.17-.46,.3v-.33h-.7v3.64h.7v-2.67Z"/><path class="f" d="M31.25,75.29h.64l1.48,1.86,.02,.02h.94l-1.71-2.08c.28-.12,.51-.29,.68-.51,.18-.24,.27-.54,.27-.9,0-.25-.05-.47-.15-.65-.1-.17-.24-.32-.41-.43-.17-.11-.35-.18-.54-.21-.18-.03-.42-.04-.69-.04h-1.27v4.83h.73v-1.88Zm1.51-1.15c-.04,.12-.1,.21-.19,.3-.09,.09-.21,.15-.34,.18-.14,.03-.3,.05-.47,.05h-.5v-1.68h.57c.17,0,.31,.01,.43,.04,.11,.02,.21,.06,.29,.12,.09,.06,.16,.14,.21,.24,.05,.1,.07,.22,.07,.35,0,.16-.02,.3-.06,.42Z"/><path class="f" d="M37.17,77.05c.1-.04,.19-.08,.26-.1h.03v-.75h-.12c-.05,.05-.11,.09-.18,.13-.07,.04-.16,.09-.27,.14-.1,.04-.21,.08-.33,.11-.12,.03-.25,.04-.37,.04-.35,0-.63-.11-.82-.31-.19-.2-.29-.49-.3-.86h2.46v-.37c0-.29-.03-.54-.1-.74-.07-.2-.17-.37-.3-.51-.13-.14-.29-.24-.46-.31-.18-.06-.38-.1-.6-.1-.5,0-.91,.18-1.22,.53-.31,.35-.47,.82-.47,1.41s.16,1.07,.48,1.39c.32,.33,.77,.49,1.35,.49,.15,0,.27,0,.37-.03,.09-.02,.2-.04,.32-.07,.08-.02,.18-.06,.28-.1Zm-2.01-2.48c.04-.11,.11-.21,.19-.29,.09-.09,.18-.15,.29-.2,.1-.04,.23-.07,.38-.07s.28,.02,.39,.07c.1,.04,.19,.11,.25,.19,.06,.08,.11,.17,.14,.28,.03,.1,.05,.22,.05,.35h-1.77c.01-.12,.04-.23,.08-.33Z"/><path class="f" d="M40.28,73.65c-.12-.07-.24-.12-.36-.16-.14-.04-.3-.07-.49-.07-.2,0-.4,.04-.59,.13-.19,.08-.35,.21-.49,.36-.14,.16-.26,.36-.34,.6-.08,.23-.13,.5-.13,.8,0,.57,.12,1.02,.37,1.33,.25,.31,.59,.47,1,.47,.24,0,.44-.04,.6-.1,.13-.06,.27-.14,.4-.25v.21c0,.14-.01,.27-.04,.38-.03,.11-.07,.2-.13,.28-.07,.08-.16,.14-.28,.19-.12,.05-.27,.07-.45,.07-.1,0-.2,0-.3-.02-.11-.02-.21-.04-.3-.07-.1-.03-.19-.05-.26-.08-.08-.03-.14-.05-.18-.07h-.1v.71h.04c.16,.06,.33,.1,.51,.12,.18,.03,.36,.04,.54,.04,.55,0,.97-.15,1.24-.44,.27-.29,.41-.75,.41-1.36v-3.19h-.65l-.03,.12Zm-.39,.46c.12,.03,.24,.08,.37,.14v1.89c-.12,.1-.26,.18-.41,.23-.16,.06-.31,.09-.46,.09-.28,0-.48-.09-.6-.29-.13-.2-.19-.49-.19-.87,0-.4,.08-.71,.25-.92,.16-.21,.39-.31,.67-.31,.12,0,.24,.02,.36,.04Z"/><rect class="f" x="41.83" y="73.52" width=".7" height="3.64"/><rect class="f" x="41.79" y="72.31" width=".78" height=".72"/><path class="f" d="M46.42,75.34c0-.6-.15-1.08-.44-1.42-.3-.34-.7-.51-1.19-.51s-.89,.17-1.19,.51c-.3,.34-.45,.81-.45,1.41s.15,1.06,.44,1.4c.29,.35,.7,.52,1.2,.52s.89-.17,1.19-.5c.29-.33,.44-.81,.44-1.42Zm-.96,.99c-.16,.21-.38,.32-.67,.32s-.52-.11-.68-.32c-.16-.22-.24-.55-.24-.98s.08-.78,.24-.99c.16-.21,.38-.31,.68-.31s.52,.1,.67,.31c.16,.21,.24,.55,.24,.99s-.08,.77-.24,.99Z"/><path class="f" d="M48.93,74.15c.08,.04,.14,.1,.18,.18,.04,.08,.07,.19,.08,.32,.02,.14,.02,.29,.02,.45v2.07h.7v-2.35c0-.45-.1-.79-.31-1.03-.21-.24-.49-.36-.86-.36-.2,0-.39,.04-.57,.13-.15,.07-.3,.17-.46,.3v-.33h-.7v3.64h.7v-2.67c.14-.12,.29-.21,.43-.29,.15-.08,.3-.11,.44-.11s.25,.02,.33,.06Z"/><path class="f" d="M52.37,77.09c.08-.04,.16-.09,.24-.16,.04-.03,.08-.06,.11-.09v.33h.69v-2.47c0-.23-.03-.42-.1-.58-.07-.16-.17-.3-.31-.4-.14-.1-.29-.17-.47-.22-.17-.04-.38-.06-.63-.06-.2,0-.41,.02-.62,.06-.22,.04-.37,.08-.48,.11h-.04v.7h.1c.18-.08,.37-.14,.55-.18,.18-.04,.34-.06,.47-.06,.11,0,.23,0,.33,.02,.1,.01,.19,.04,.26,.09,.07,.04,.12,.1,.16,.18,.04,.08,.06,.18,.06,.32v.07c-.31,.02-.58,.04-.83,.08-.28,.04-.52,.1-.72,.19-.23,.11-.41,.25-.51,.43-.11,.18-.16,.4-.16,.65,0,.16,.03,.32,.09,.47,.06,.15,.14,.27,.24,.38,.1,.1,.23,.19,.36,.24,.14,.06,.28,.09,.44,.09,.19,0,.33-.02,.43-.05,.1-.03,.21-.07,.31-.13Zm.36-1.77v.91c-.12,.11-.26,.2-.4,.28-.15,.08-.3,.12-.49,.12-.21,0-.36-.05-.47-.14-.1-.09-.16-.24-.16-.42,0-.17,.05-.29,.14-.38,.1-.09,.22-.17,.37-.21,.13-.04,.3-.07,.52-.09,.19-.02,.35-.03,.48-.05Z"/><rect class="f" x="54.27" y="72.13" width=".7" height="5.04"/><path class="f" d="M3.27,79.72c-.18-.12-.4-.21-.66-.28-.26-.07-.61-.1-1.06-.1H.42v4.83H1.56c.38,0,.71-.03,.95-.08,.25-.05,.5-.16,.75-.31,.3-.2,.54-.48,.72-.83,.18-.35,.27-.75,.27-1.19,0-.47-.09-.88-.26-1.21-.17-.34-.41-.62-.73-.82Zm-1.69,3.8h-.43v-3.55h.43c.28,0,.51,.02,.7,.07,.18,.04,.36,.11,.52,.21,.23,.14,.4,.33,.52,.58,.12,.25,.18,.56,.18,.91s-.05,.66-.16,.9c-.11,.24-.27,.43-.48,.57-.17,.12-.36,.2-.56,.24-.21,.04-.45,.07-.72,.07Z"/><path class="f" d="M7.39,80.83c-.13-.14-.29-.24-.46-.31-.18-.06-.38-.1-.6-.1-.5,0-.91,.18-1.22,.53-.31,.35-.47,.82-.47,1.41s.16,1.07,.48,1.39c.32,.33,.77,.49,1.35,.49,.15,0,.27,0,.37-.03,.09-.02,.2-.04,.32-.07,.08-.02,.18-.06,.28-.1,.1-.04,.19-.08,.26-.1h.03v-.75h-.12c-.05,.05-.11,.09-.18,.13-.07,.04-.16,.09-.27,.14-.1,.04-.21,.08-.33,.11-.12,.03-.25,.04-.37,.04-.35,0-.63-.11-.82-.31-.19-.2-.29-.49-.3-.86h2.46v-.37c0-.29-.03-.54-.1-.74-.07-.2-.17-.37-.3-.51Zm-1.96,.74c.04-.11,.11-.21,.19-.29,.09-.09,.18-.15,.29-.2,.1-.04,.23-.07,.38-.07s.28,.02,.39,.07c.1,.04,.19,.11,.25,.19,.06,.08,.11,.17,.14,.28,.03,.1,.05,.22,.05,.35h-1.77c.01-.12,.04-.23,.08-.33Z"/><polygon class="f" points="9.65 83.16 8.72 80.52 7.97 80.52 9.32 84.13 9.33 84.17 9.94 84.17 11.31 80.52 10.58 80.52 9.65 83.16"/><path class="f" d="M14.25,80.83c-.13-.14-.29-.24-.46-.31-.18-.06-.38-.1-.6-.1-.5,0-.91,.18-1.22,.53-.31,.35-.47,.82-.47,1.41s.16,1.07,.48,1.39c.32,.33,.77,.49,1.35,.49,.15,0,.27,0,.37-.03,.09-.02,.2-.04,.32-.07,.08-.02,.18-.06,.28-.1,.1-.04,.19-.08,.26-.1h.03v-.75h-.12c-.05,.05-.11,.09-.18,.13-.07,.04-.16,.09-.27,.14-.1,.04-.21,.08-.33,.11-.12,.03-.25,.04-.37,.04-.35,0-.63-.11-.82-.31-.19-.2-.29-.49-.3-.86h2.46v-.37c0-.29-.03-.54-.1-.74-.07-.2-.17-.37-.3-.51Zm-1.96,.74c.04-.11,.11-.21,.19-.29,.09-.09,.18-.15,.29-.2,.1-.04,.23-.07,.38-.07s.28,.02,.39,.07c.1,.04,.19,.11,.25,.19,.06,.08,.11,.17,.14,.28,.03,.1,.05,.22,.05,.35h-1.77c.01-.12,.04-.23,.08-.33Z"/><rect class="f" x="15.27" y="79.13" width=".7" height="5.04"/><path class="f" d="M18.22,80.42c-.49,0-.89,.17-1.19,.51-.3,.34-.45,.81-.45,1.41s.15,1.06,.44,1.4c.29,.35,.7,.52,1.2,.52s.89-.17,1.19-.5c.29-.33,.44-.81,.44-1.42s-.15-1.08-.44-1.42c-.3-.34-.7-.51-1.19-.51Zm.67,2.91c-.16,.21-.38,.32-.67,.32s-.52-.11-.68-.32c-.16-.22-.24-.55-.24-.98s.08-.78,.24-.99c.16-.21,.38-.31,.68-.31s.52,.1,.67,.31c.16,.21,.24,.55,.24,.99s-.08,.77-.24,.99Z"/><path class="f" d="M22.2,80.42c-.22,0-.43,.05-.61,.14-.15,.07-.29,.17-.42,.27v-.31h-.7v4.95h.7v-1.45c.12,.07,.24,.12,.35,.15,.14,.04,.3,.06,.48,.06,.44,0,.82-.18,1.11-.54,.29-.36,.43-.84,.43-1.44,0-.55-.12-1-.35-1.32-.24-.33-.57-.5-.99-.5Zm.63,1.89c0,.42-.08,.75-.25,.96-.16,.22-.39,.32-.68,.32-.14,0-.26-.01-.37-.04-.1-.02-.22-.07-.36-.14v-1.95c.13-.11,.27-.2,.42-.27,.15-.07,.31-.11,.47-.11,.27,0,.46,.1,.58,.31,.12,.21,.19,.52,.19,.92Z"/><path class="f" d="M28.57,80.74c-.1-.11-.21-.19-.35-.24-.13-.05-.28-.07-.43-.07-.21,0-.41,.05-.58,.16-.16,.1-.32,.23-.49,.41-.09-.19-.21-.33-.36-.42-.17-.1-.37-.15-.58-.15-.19,0-.37,.04-.53,.13-.13,.07-.26,.17-.39,.29v-.33h-.7v3.64h.7v-2.67c.12-.11,.25-.21,.39-.29,.13-.08,.26-.11,.38-.11s.22,.02,.29,.05c.07,.04,.12,.09,.16,.17,.04,.07,.06,.18,.07,.31,.01,.14,.02,.29,.02,.45v2.1h.7v-2.38c0-.07,0-.13,0-.18v-.11c.13-.13,.27-.23,.4-.3,.13-.07,.26-.11,.37-.11,.13,0,.22,.02,.29,.05,.07,.04,.12,.09,.16,.17,.04,.07,.06,.17,.07,.31,.01,.14,.02,.29,.02,.45v2.1h.7v-2.38c0-.25-.03-.46-.08-.62-.05-.17-.13-.31-.23-.42Z"/><path class="f" d="M32.22,80.83c-.13-.14-.29-.24-.46-.31-.18-.06-.38-.1-.6-.1-.5,0-.91,.18-1.22,.53-.31,.35-.47,.82-.47,1.41s.16,1.07,.48,1.39c.32,.33,.77,.49,1.35,.49,.15,0,.27,0,.37-.03,.09-.02,.2-.04,.32-.07,.08-.02,.18-.06,.28-.1,.1-.04,.19-.08,.26-.1h.03v-.75h-.12c-.05,.05-.11,.09-.18,.13-.07,.04-.16,.09-.27,.14-.1,.04-.21,.08-.33,.11-.12,.03-.25,.04-.37,.04-.35,0-.63-.11-.82-.31-.19-.2-.29-.49-.3-.86h2.46v-.37c0-.29-.03-.54-.1-.74-.07-.2-.17-.37-.3-.51Zm-1.96,.74c.04-.11,.11-.21,.19-.29,.09-.09,.18-.15,.29-.2,.1-.04,.23-.07,.38-.07s.28,.02,.39,.07c.1,.04,.19,.11,.25,.19,.06,.08,.11,.17,.14,.28,.03,.1,.05,.22,.05,.35h-1.77c.01-.12,.04-.23,.08-.33Z"/><path class="f" d="M34.95,80.42c-.2,0-.39,.04-.57,.13-.15,.07-.3,.17-.46,.3v-.33h-.7v3.64h.7v-2.67c.14-.12,.29-.21,.43-.29,.15-.08,.3-.11,.44-.11s.25,.02,.33,.06c.08,.04,.14,.1,.18,.18,.04,.08,.07,.19,.08,.32,.02,.14,.02,.29,.02,.45v2.07h.7v-2.35c0-.45-.1-.79-.31-1.03-.21-.24-.49-.36-.86-.36Z"/><path class="f" d="M37.69,79.5h-.7v1.02h-.4v.59h.4v1.91c0,.41,.1,.72,.29,.91,.19,.19,.46,.29,.8,.29,.1,0,.2,0,.33-.03,.12-.02,.24-.04,.35-.08h.04v-.63h-.11s-.1,.04-.19,.07c-.08,.03-.17,.04-.27,.04-.13,0-.23-.02-.31-.05-.07-.03-.12-.08-.15-.14-.04-.08-.06-.16-.07-.25,0-.09,0-.23,0-.41v-1.63h1.1v-.59h-1.1v-1.02Z"/><polygon class="f" points="41.4 84.17 42.13 84.17 42.13 81.89 44.24 81.89 44.24 81.23 42.13 81.23 42.13 80 44.33 80 44.33 79.34 41.4 79.34 41.4 84.17"/><path class="f" d="M47,83.2c-.13,.11-.27,.21-.43,.28-.16,.08-.31,.12-.44,.12-.15,0-.26-.02-.34-.06-.07-.04-.13-.1-.18-.18-.05-.09-.08-.19-.09-.31-.01-.12-.02-.28-.02-.46v-2.07h-.7v2.35c0,.24,.03,.45,.09,.62,.06,.17,.14,.32,.25,.43,.11,.12,.23,.2,.38,.25,.14,.05,.29,.08,.45,.08,.21,0,.4-.04,.57-.13,.14-.07,.29-.17,.45-.3v.33h.7v-3.64h-.7v2.67Z"/><path class="f" d="M50.28,80.42c-.2,0-.39,.04-.57,.13-.15,.07-.3,.17-.46,.3v-.33h-.7v3.64h.7v-2.67c.14-.12,.29-.21,.43-.29,.15-.08,.3-.11,.44-.11s.25,.02,.33,.06c.08,.04,.14,.1,.18,.18,.04,.08,.07,.19,.08,.32,.02,.14,.02,.29,.02,.45v2.07h.7v-2.35c0-.45-.1-.79-.31-1.03-.21-.24-.49-.36-.86-.36Z"/><path class="f" d="M54.42,79.13v1.5c-.12-.06-.24-.11-.35-.15-.13-.04-.3-.06-.48-.06-.21,0-.41,.05-.6,.14s-.35,.22-.48,.38c-.15,.17-.26,.38-.34,.61-.08,.23-.12,.51-.12,.82s.03,.57,.1,.81c.06,.23,.16,.43,.28,.59,.12,.16,.26,.29,.44,.37,.17,.08,.36,.13,.56,.13,.12,0,.23-.01,.33-.03,.09-.02,.19-.06,.27-.1,.1-.04,.18-.09,.25-.14,.05-.04,.1-.08,.16-.13v.3h.7v-5.04h-.7Zm0,2.11v1.99c-.13,.11-.27,.2-.42,.26-.15,.07-.3,.1-.45,.1-.28,0-.47-.1-.6-.31-.13-.21-.19-.53-.19-.93s.08-.75,.25-.96c.17-.22,.39-.33,.68-.33,.13,0,.26,.01,.37,.04,.11,.02,.23,.07,.36,.13Z"/></g><g><path class="f" d="M.42,68.43v-8.91H6v1.05H1.61v2.44H5.7v1.05H1.61v3.31H6v1.05H.42Z"/><path class="f" d="M12.42,68.43h-1.12v-.74c-.35,.3-.68,.53-.99,.69s-.66,.24-1.04,.24c-.29,0-.57-.05-.82-.14s-.48-.25-.67-.45-.34-.47-.45-.78-.16-.7-.16-1.15v-4.34h1.12v3.81c0,.36,.01,.65,.04,.88s.08,.44,.18,.61c.09,.17,.22,.3,.37,.38s.38,.12,.68,.12c.28,0,.57-.08,.88-.23s.6-.35,.86-.57v-4.99h1.12v6.68Z"/><path class="f" d="M17.59,62.96h-.06c-.08-.02-.17-.04-.27-.04s-.21,0-.34,0c-.3,0-.6,.07-.9,.2s-.58,.33-.85,.59v4.75h-1.12v-6.68h1.12v.99c.41-.36,.77-.62,1.07-.77s.6-.22,.89-.22c.12,0,.2,0,.26,0s.12,.01,.19,.03v1.17Z"/><path class="f" d="M23.9,65.09c0,1.12-.27,1.99-.81,2.61s-1.26,.92-2.17,.92-1.66-.32-2.19-.95-.8-1.49-.8-2.58,.27-1.98,.82-2.6,1.27-.93,2.17-.93,1.62,.31,2.17,.92,.81,1.48,.81,2.61Zm-1.16,0c0-.87-.16-1.51-.47-1.93s-.76-.63-1.35-.63-1.04,.21-1.36,.63-.48,1.06-.48,1.93,.16,1.47,.48,1.91,.77,.65,1.36,.65,1.03-.21,1.34-.64,.48-1.06,.48-1.92Z"/><path class="f" d="M30.66,64.91c0,1.11-.27,2-.8,2.66s-1.21,.99-2.02,.99c-.33,0-.62-.04-.88-.11s-.52-.19-.78-.35v2.8h-1.12v-9.15h1.12v.7c.28-.25,.59-.46,.93-.63s.71-.25,1.12-.25c.77,0,1.36,.3,1.79,.91s.64,1.42,.64,2.44Zm-1.16,.13c0-.76-.12-1.35-.37-1.77s-.64-.63-1.18-.63c-.32,0-.63,.07-.92,.21s-.58,.32-.85,.55v3.79c.3,.14,.55,.24,.76,.29s.45,.08,.72,.08c.58,0,1.04-.21,1.36-.64s.48-1.05,.48-1.87Z"/><path class="f" d="M34.73,68.59c-1.07,0-1.89-.3-2.48-.9s-.88-1.45-.88-2.56,.29-1.96,.86-2.6,1.32-.97,2.24-.97c.41,0,.78,.06,1.1,.18s.6,.31,.84,.56,.42,.57,.55,.94,.19,.82,.19,1.36v.61h-4.63c0,.78,.2,1.37,.59,1.78s.93,.62,1.62,.62c.25,0,.49-.03,.73-.08s.45-.13,.64-.22c.2-.09,.37-.18,.51-.27s.26-.17,.35-.24h.07v1.23c-.13,.05-.3,.12-.49,.19s-.37,.14-.53,.18c-.22,.06-.42,.11-.6,.14s-.4,.05-.67,.05Zm1.32-4.24c0-.3-.04-.56-.11-.78s-.16-.4-.28-.56c-.13-.17-.3-.3-.51-.38s-.46-.13-.76-.13-.55,.04-.76,.13-.4,.22-.57,.39c-.17,.18-.3,.37-.38,.58s-.14,.46-.17,.74h3.54Z"/><path class="f" d="M42.01,67.72c-.09,.07-.21,.16-.37,.28s-.3,.22-.45,.29c-.2,.1-.39,.18-.58,.24s-.45,.08-.78,.08c-.28,0-.54-.05-.78-.16s-.46-.25-.65-.44c-.18-.18-.32-.41-.43-.68s-.16-.55-.16-.85c0-.46,.1-.86,.29-1.18s.5-.58,.93-.77c.37-.17,.82-.29,1.33-.36s1.06-.11,1.65-.15v-.22c0-.26-.04-.48-.12-.64s-.19-.29-.34-.37c-.14-.09-.32-.15-.53-.18s-.42-.04-.64-.04c-.26,0-.56,.04-.92,.12s-.7,.19-1.05,.34h-.07v-1.14c.21-.06,.5-.13,.89-.2s.77-.11,1.15-.11c.46,0,.85,.04,1.16,.11s.6,.2,.85,.39c.24,.18,.42,.42,.54,.71s.18,.65,.18,1.07v4.57h-1.12v-.71Zm0-.93v-1.85c-.27,.02-.61,.06-1.01,.1s-.74,.1-.99,.18c-.3,.09-.55,.23-.74,.42s-.29,.45-.29,.79c0,.38,.11,.67,.32,.87s.53,.29,.95,.29c.36,0,.68-.08,.96-.23s.56-.34,.81-.57Z"/><path class="f" d="M49.96,68.43h-1.12v-3.81c0-.31-.01-.59-.04-.86s-.09-.48-.17-.64c-.09-.17-.22-.29-.38-.37s-.39-.12-.67-.12-.57,.07-.86,.22-.59,.34-.87,.58v4.99h-1.12v-6.68h1.12v.74c.34-.3,.67-.53,.99-.69s.67-.24,1.04-.24c.66,0,1.17,.22,1.54,.65s.56,1.06,.56,1.88v4.34Z"/><path class="f" d="M58.57,68.62c-.52,0-.98-.07-1.37-.21s-.72-.34-1-.61c-.31-.31-.53-.68-.66-1.12s-.19-.97-.19-1.6v-5.56h1.18v5.56c0,.41,.03,.76,.08,1.04s.15,.53,.31,.76c.16,.24,.38,.42,.65,.54s.61,.19,1,.19c.37,0,.7-.06,.99-.19s.51-.31,.67-.54c.15-.23,.25-.48,.3-.75s.08-.61,.08-1.01v-5.59h1.18v5.56c0,.62-.06,1.15-.19,1.59s-.35,.82-.66,1.12c-.28,.28-.61,.48-.99,.62s-.84,.2-1.39,.2Z"/><path class="f" d="M68.66,68.43h-1.12v-3.81c0-.31-.01-.59-.04-.86s-.09-.48-.17-.64c-.09-.17-.22-.29-.38-.37s-.39-.12-.67-.12-.57,.07-.86,.22-.59,.34-.87,.58v4.99h-1.12v-6.68h1.12v.74c.34-.3,.67-.53,.99-.69s.67-.24,1.04-.24c.66,0,1.17,.22,1.54,.65s.56,1.06,.56,1.88v4.34Z"/><path class="f" d="M71.47,60.63h-1.28v-1.17h1.28v1.17Zm-.08,7.8h-1.12v-6.68h1.12v6.68Z"/><path class="f" d="M78.54,65.09c0,1.12-.27,1.99-.81,2.61s-1.26,.92-2.17,.92-1.66-.32-2.19-.95-.8-1.49-.8-2.58,.27-1.98,.82-2.6,1.27-.93,2.17-.93,1.62,.31,2.17,.92,.81,1.48,.81,2.61Zm-1.16,0c0-.87-.16-1.51-.47-1.93s-.76-.63-1.35-.63-1.04,.21-1.36,.63-.48,1.06-.48,1.93,.16,1.47,.48,1.91,.77,.65,1.36,.65,1.03-.21,1.34-.64,.48-1.06,.48-1.92Z"/><path class="f" d="M84.95,68.43h-1.12v-3.81c0-.31-.01-.59-.04-.86s-.09-.48-.17-.64c-.09-.17-.22-.29-.38-.37s-.39-.12-.67-.12-.57,.07-.86,.22-.59,.34-.87,.58v4.99h-1.12v-6.68h1.12v.74c.34-.3,.67-.53,.99-.69s.67-.24,1.04-.24c.66,0,1.17,.22,1.54,.65s.56,1.06,.56,1.88v4.34Z"/></g></g></g></svg>