<?xml version="1.0" encoding="UTF-8"?><svg xmlns="http://www.w3.org/2000/svg" viewBox="0 0 780.78 481.42"><defs><style>.d{fill:#004a26;}.e,.f{fill:#235b2b;}.g{fill:#1c75bc;}.h{fill:#416e30;}.i{fill:#44c8f5;}.j{fill:#5d8334;}.k{fill:#99b437;}.k,.f,.l{fill-rule:evenodd;}.l{fill:#bed734;}</style></defs><g id="a"/><g id="b"><g id="c"><g><path class="d" d="M75.39,211.51c17.53,0,28.93,.38,34.25,1.15,5.31,.77,7.96,2.05,7.96,3.84,0,.89-.74,3.36-2.21,7.39-1.47,4.03-2.68,6.46-3.64,7.29-.96,.83-2.66,1.25-5.09,1.25l-31.27,.58c-.51,53.67-.76,83.89-.76,90.68,0,17.42,1.85,28.82,5.56,34.2,3.71,5.38,10.36,8.77,19.95,10.18,5.88,.76,8.82,2.68,8.82,5.75,0,3.33-3.07,4.99-9.21,4.99-3.58,0-9.66-.32-18.22-.96-8.18-.65-15.86-.96-23.02-.96-8.96,0-19.63,.4-32.04,1.22-8.19,.46-13.43,.7-15.73,.7-4.86,0-7.29-1.83-7.29-5.49,0-2.48,1.53-4.1,4.61-4.87,8.95-2.17,14.51-4.73,16.69-7.66,2.17-2.94,3.51-10.6,4.03-22.99,.51-12.39,.77-47.32,.77-104.79-3.84-.13-8.9-.2-15.16-.2-9.6,0-14.39-1.47-14.39-4.41,0-1.66,.64-4.35,1.92-8.05,1.28-3.71,2.98-5.95,5.08-6.72,2.11-.77,9.62-1.47,22.54-2.11,0-33.19,7.67-57.64,23.02-73.33,15.34-15.7,36.64-23.55,63.88-23.55,17.78,0,30.7,3.07,38.75,9.2,8.06,6.14,12.09,12.86,12.09,20.15,0,4.73-1.79,8.79-5.37,12.18-3.58,3.39-8.38,5.08-14.39,5.08-10.36,0-19.63-6.9-27.82-20.72-3.84-6.65-7.04-10.68-9.59-12.09-2.56-1.4-5.44-2.11-8.63-2.11-8.96,0-15.67,4.84-20.15,14.52-4.48,9.68-6.46,33.23-5.95,70.66"/><path class="e" d="M291.53,351.31c-.49,.24-.98,.47-1.48,.68-1.33,.67-2.65,.67-3.99,.67-19.27,0-22.59-57.15-13.28-112.98,1.33-9.31,2.65-20.6-3.32-28.58-4.66-6.65-13.96-9.31-21.94-10.63h-4.65c-7.31,0-14.62,1.99-21.27,5.97-3.99,2.66-4.65,10.63-4.65,21.27,0,0-2.66,50.51-1.34,75.1,.67,8.64,1.34,17.27,3.32,25.25-9.3,12.62-21.93,21.93-31.9,21.93-3.32,0-5.97-1.32-8.63-3.32-12.63-12.63,3.32-106.99,1.32-130.92-1.32-14.62-15.28-19.27-29.9-19.27h-2.66c-15.94,.66-16.62,15.28-19.93,32.56-4,23.93-2,49.18-2.66,55.15-.66,9.97,1.33,27.25,.66,37.22-.66,11.96-1.32,23.93,3.99,33.89,5.99,11.97,19.28,19.28,32.56,19.94h.66c12.63,0,41.87-11.96,61.15-34.56,9.3,17.28,28.58,29.25,48.51,29.25,3.32,0,6.65-.67,9.97-1.34,5.43-1.21,10.3-2.76,14.77-4.79-2.28-3.87-4.03-8.06-5.32-12.5"/><path class="j" d="M492.91,329v9.35h-96.35v-9.35h14.17v-121.01h-14.17v-10.2c28.05,0,67.16-3.69,82.18-9.07v140.28h14.17Zm-93.8-175.99c0-27.49,26.92-34.01,39.67-34.01,24.94,0,40.81,9.92,40.81,31.74,0,19.84-17,33.44-42.51,33.44-17.29,0-37.97-6.23-37.97-31.17"/><path class="h" d="M286.63,325.53c-.32-13.25,4.52-18.74,17.13-19.39h6.46c5.82,.65,8.41,2.91,9.37,8.73,.65,3.56,.97,7.43,1.62,10.99,1.29,8.4,4.53,15.83,10.99,21.33,5.17,3.88,9.05,3.56,12.93-1.62,4.2-5.17,4.84-10.99,3.56-17.13-1.62-9.37-6.15-17.46-12.28-24.56-17.77-19.39-29.09-42.99-38.14-66.9-8.4-22.95-2.9-44.28,13.58-62.38,.32-.32,.97-.65,1.29-.97,11.64-10.34,42.02-14.22,55.92-7.44,5.81,3.23,10.34,8.08,13.57,14.22,6.79,12.93,8.41,27.47,8.73,42.02,.32,5.82-2.58,10.02-8.4,11.96-3.87,1.29-7.76,2.91-11.96,4.2-7.76,1.94-12.6-.96-14.86-8.72-.97-2.9-1.29-6.14-1.94-9.37-.32-1.29-.32-2.91-.97-4.52-.97-2.59-1.29-5.82-4.84-6.15-2.91-.32-4.85,3.23-5.17,7.76-.32,7.76,2.26,14.55,6.78,20.68,6.15,9.05,12.93,18.1,19.4,26.83,18.74,26.5,24.24,55.59,19.39,87.26-3.56,24.56-27.15,46.87-58.5,36.85-7.11-2.26-13.89-5.18-20.04-9.05-11.31-7.76-17.77-18.74-20.68-31.67-1.62-7.76-2.26-15.84-2.9-22.95"/><path class="k" d="M385.69,128.46C427.59,71.01,308.67,12.02,266,1.87c-7.93,86.48,22.27,127.99,111.29,134.04-14.3-39.68-49.8-64.24-65.93-88.02,28.53,25.79,58.16,55.91,74.33,80.57"/><path class="f" d="M417.45,98.05C385.4,52.75,479.97,7.39,513.02,0c4.98,68.05-19.25,100.67-88.06,103.84,10.92-30.9,39.5-50.04,52.21-68.5-22.45,19.55-46.08,43.43-59.72,62.71"/><path class="l" d="M690.66,88.62c-8.82,4.12-15.12,10.97-20.47,17.3-6.03,7.13-11.56,15.26-14.31,24.37-3.89,12.87-3.5,26.32-1.84,38.92,1.41,10.71,4.33,21.67,10.03,31.49,4.52,7.77,11.77,12.71,16.37,18.11,5.91,6.92,12.18,13.07,15.98,19.92,1.72,3.12,2.88,6.64,3.54,10.25,4.09,22.48,2.13,46.08,1.74,69.79-.62,37.84-7.66,76.12-6.66,114.89,.15,5.64-.95,12.43-1.05,19.3-.1,6.87,.86,14.16,6.12,20.06,6.18,6.93,16.93,9.7,26.38,7.83,7.64-1.51,12.71-7.12,15.61-12.43,4.87-8.93,2.47-18.33,2.57-25.6,.21-16.02-1.76-31.73-2.87-47.21-1.92-26.7-3.63-53.51-6.64-80.26-2.64-22.68-4.32-35.48,.54-66.91,1.25-8.07,10.2-18.73,17.32-28.76,5.18-7.3,14.95-13.65,20.08-24,5.61-11.33,7.81-23.89,7.68-35.93-.15-14.02-3.81-27.96-9.63-40.68-4.08-8.93-9.1-18.9-18.51-25.64-8.98-6.43-20.53-9.57-31.59-10.29-10.7-.45-21.07,1.2-30.39,5.49"/><path class="h" d="M23.68,433.49c-.44-6.12-.7-12.24-.79-18.36,0-.87,0-1.83,.09-2.8,.26-1.4,1.14-2.27,2.53-2.45,2.45-.35,4.9-.17,7.26,.26,1.84,.26,2.54,1.66,2.71,3.32,.26,2.19,.44,4.37,.52,6.64,.17,7.61,.26,15.21,.35,22.82,0,7.34-1.22,14.51-2.62,21.68-1.31,6.29-7.61,8.57-11.98,8.22-2.45-.26-4.81-.7-7.17-1.4-3.93-1.22-6.38-3.85-7.69-7.69-1.14-2.89-1.4-5.94-1.66-9-.61-7.43-.96-14.77-.7-22.2,.26-5.68,.26-11.45,.35-17.14,.09-4.37,.88-5.07,5.16-5.07,1.31,0,2.53-.09,3.85,0,2.27,.09,3.23,1.05,3.32,3.32,.09,1.49,.09,3.06-.09,4.55-.61,7.08,0,14.25,.26,21.33,.09,3.85,.26,7.69,.44,11.54,.09,2.1,.26,4.11,.7,6.21,.44,2.19,1.22,3.24,2.53,3.24,1.23,0,1.92-1.23,2.19-3.41,.44-4.72,.44-9.44,.44-14.16-.09-3.15,0-6.29,0-9.44"/><path class="h" d="M43.82,439.87c-.17-6.64-.44-15.39-.61-24.13-.09-2.97,.79-4.2,3.58-5.07,5.86-2.01,11.71-2.27,17.75-1.05,3.06,.7,5.51,2.45,6.82,5.33,4.02,8.31,3.67,16.44-1.49,24.13-2.62,3.85-2.53,2.54-.79,6.82,1.83,4.2,2.62,8.74,3.58,13.2,.61,2.97,1.14,6.03,1.75,9,.09,.79,.17,1.57,.09,2.36-.18,1.05-.88,1.57-1.84,1.92-2.01,.61-4.02,.7-6.12,.44-1.14-.18-1.84-.96-2.27-2.01-.7-1.49-.96-3.06-1.31-4.54-1.31-5.51-2.62-10.93-3.93-16.44-.17-.79-.35-1.66-.87-2.36-.18-.35-.44-.61-.88-.53-.44,0-.7,.35-.88,.79-.17,.53-.09,1.14-.09,1.66,.61,6.03,.44,12.15,.44,18.18,0,2.62-.78,3.5-3.32,4.2-1.49,.35-2.89,.7-4.37,1.05-2.71,.61-3.93-.26-4.2-3.06-.18-3.32-.44-6.65-.44-10.05,.09-5.86-.26-11.8-.61-19.84m19.14-12.24c-.09-.7-.17-1.49-.26-2.27-.53-3.32-2.62-5.16-5.95-5.25-2.1-.09-2.71,.52-2.53,2.62,.26,2.88,.61,5.77,.96,8.66,.09,1.05,.09,2.01,.26,2.97,.26,1.22,.53,1.4,1.75,1.22,3.32-.44,5.07-2.19,5.51-5.51,.09-.79,.09-1.57,.26-2.45"/><path class="h" d="M80.85,441.1c.09-8.39,.26-16.26-.44-24.21v-.79c0-3.06,.79-4.02,3.85-4.29,3.5-.35,6.99-.96,10.67-.79,2.71,.17,5.33,.61,7.78,1.83,3.5,1.66,5.51,4.46,6.03,8.31,.61,5.51-.09,10.67-3.67,15.21-1.05,1.31-1.05,1.49,.44,2.45,2.19,1.4,3.41,3.41,4.11,5.77,1.57,4.9,1.14,9.79,.26,14.6-.26,1.57-.61,3.15-1.14,4.63-1.14,3.41-3.41,5.86-6.73,7.26-5.51,2.27-11.19,2.1-16.87,.88-1.49-.26-2.45-1.22-2.97-2.71-.44-1.22-.61-2.45-.7-3.76-.61-8.3-.88-16.52-.61-24.39m10.32-13.29c0,1.22,0,2.71,.09,4.11,0,.7,.18,1.22,1.05,1.22,2.54,0,4.81-2.01,5.16-4.55,.18-1.22,.09-2.36-.26-3.58-.61-2.19-2.36-3.41-4.46-3.24-.96,.09-1.49,.61-1.57,1.57-.09,1.49-.09,2.88,0,4.46m7.96,25.44c-.09-2.1-.35-4.11-1.49-5.94-.96-1.49-2.45-2.19-4.11-2.27-1.49-.09-2.1,.44-2.27,1.92-.09,.61-.09,1.31,0,1.92,.09,3.06,.18,6.12,.35,9.18,.09,2.36,.88,2.8,3.15,2.01,2.89-.96,4.37-3.32,4.37-6.82"/><path class="h" d="M150.53,466.01c.17,4.55-1.14,5.86-5.24,5.77-3.15-.18-4.29-1.14-4.63-4.11-.61-5.24-1.22-10.49-1.75-15.74-.35-3.41-.61-3.58-3.93-3.58-1.05,0-2.18-.09-3.23,0-2.01,.09-2.54,.44-2.8,2.45-.7,4.9-1.92,9.61-2.8,14.51-.18,.87-.35,1.83-.61,2.71-.09,.44-.18,.79-.35,1.22-.7,1.66-2.18,2.19-3.85,2.27-1.92,.09-4.02,.44-5.51-1.4-.7-.88-.61-2.01-.52-3.06,.35-3.85,1.14-7.6,1.92-11.36,2.36-11.71,4.02-23.52,5.77-35.23,.26-1.75,.26-3.5,.52-5.16,.26-2.1,1.05-2.88,3.06-3.23,4.37-.96,8.83-.7,13.2-.35,1.92,.18,3.06,1.22,3.58,3.15,3.59,13.02,5.77,26.31,6.47,39.86,.17,3.85,.26,7.78,.7,11.28m-16.35-27.1c-.26,0-.09,0,0,0,2.62,.09,2.71,0,2.36-2.62-.61-3.58-1.22-7.17-1.84-10.75-.09-.61-.35-1.22-.52-1.84-.17-.44-.61-.7-1.05-.61-.53,0-.79,.35-.88,.79-.17,.52-.35,1.05-.35,1.66-.44,3.23-.88,6.47-1.31,9.7q-.44,3.59,3.59,3.67"/><path class="h" d="M182.03,443.37c0-2.45,.17-4.81,0-7.26-.35-6.03-.26-12.15-.52-18.18-.09-3.58,1.14-4.81,4.81-4.63,3.15,.17,4.46,1.31,4.81,4.55,.44,5.16,.79,10.4,.88,15.56,.09,8.83,.7,17.57,.87,26.31,0,2.19-.09,4.28-.09,6.47,0,.79,0,1.66-.26,2.54-.44,1.22-1.22,1.92-2.54,2.01-2.71,0-5.51,0-8.31-.26-1.4-.09-2.36-.87-2.88-2.19-.17-.26-.35-.61-.44-.96-1.75-6.03-4.02-11.89-6.03-17.83-1.4-4.11-3.06-8.13-4.63-12.24-.09-.26-.17-.61-.79-.79-.35,.79-.17,1.66-.17,2.45,.17,8.83,.35,17.66,.61,26.57,0,1.14,.09,2.36-.09,3.59-.26,1.4-1.05,2.36-2.45,2.62-1.49,.26-2.97,.35-4.46,0-1.75-.35-2.45-1.22-2.62-2.97,0-.17-.09-.35-.09-.61,0-11.01-1.22-21.94-1.22-32.96,.09-6.12,0-12.24,0-18.36,0-.52,0-1.05,.09-1.49,.26-2.18,1.05-3.06,3.23-3.23,2.62-.09,5.25-.09,7.96,.26,2.54,.35,4.2,1.57,4.9,4.11,.17,.79,.52,1.66,.7,2.45,2.18,7.34,4.9,14.6,7.34,21.94,.26,.88,.7,1.84,1.05,2.71,.09-.09,.26-.09,.35-.18"/><path class="h" d="M224.94,441.97c-.26-8.22-.26-16.43,.09-24.65,.09-3.93,.87-4.98,4.81-5.24,4.11-.26,8.22-1.05,12.41-1.05,4.46,.09,5.42,.96,5.16,5.42-.09,.79-.09,1.57-.17,2.36-.26,1.92-1.14,2.8-3.06,3.06-1.83,.18-3.67,.26-5.51,.35-2.1,.17-2.53,.52-2.53,2.62-.09,3.23,0,6.56,.09,9.79,.09,1.57,.52,1.92,2.01,1.92,1.57,.09,3.15,0,4.72,.26,2.19,.35,3.06,1.14,3.5,3.41,.09,.79,.18,1.66,.26,2.54,.09,2.53-1.05,3.85-3.59,4.19-1.14,.09-2.27,.09-3.41,.26-2.71,.26-2.88,.35-2.8,3.06,.17,4.98,.17,9.97,.17,14.95,0,4.63-.87,5.6-5.51,5.86-.88,0-1.75,.09-2.62,.09-2.71,.09-3.76-.79-3.93-3.58-.09-.52-.09-1.14-.09-1.66v-23.95Z"/><path class="h" d="M252.97,442.06c-.17-3.06-.35-6.47-.44-9.79-.09-2.53,0-5.16,.35-7.69,.26-2.62,1.14-4.98,2.36-7.26,1.22-2.1,2.97-3.58,5.25-4.55,3.85-1.66,7.95-2.18,12.15-1.92,3.06,.18,5.51,1.84,7.34,4.2,1.57,2.1,2.45,4.37,2.97,6.82,.79,3.32,1.14,6.73,1.22,10.23,.09,6.99,.09,13.99,.17,20.89,0,2.8-.17,5.6-.87,8.3-1.31,4.81-4.2,8.22-8.92,9.97-2.62,.96-5.33,1.57-8.13,1.66-4.11,0-7.43-1.66-9.88-4.98-2.1-2.8-3.24-5.94-3.24-9.35,0-5.42-.61-10.84-.35-16.52m10.93,.35c.17,3.58,.44,7.78,.7,11.98,.09,1.14,.35,2.27,.87,3.32,1.23,2.01,3.24,2.36,5.07,.79,.87-.7,1.48-1.57,1.75-2.62,.26-.96,.44-1.92,.52-2.88,.7-7.69,.35-15.3-.26-22.9-.17-1.75-.44-3.58-.87-5.24-.79-2.8-3.85-3.5-5.86-1.4-.87,.79-1.4,1.84-1.57,2.97-.17,1.22-.35,2.53-.35,3.85-.09,3.85-.18,7.69,0,12.15"/><path class="h" d="M291.17,442.06c-.17-3.06-.35-6.47-.44-9.79-.09-2.53,0-5.16,.35-7.69,.26-2.62,1.14-4.98,2.36-7.26,1.22-2.1,2.97-3.58,5.25-4.55,3.85-1.66,7.95-2.18,12.15-1.92,3.06,.18,5.51,1.84,7.34,4.2,1.57,2.1,2.45,4.37,2.97,6.82,.79,3.32,1.14,6.73,1.22,10.23,.09,6.99,.09,13.99,.17,20.89,0,2.8-.17,5.6-.87,8.3-1.31,4.81-4.2,8.22-8.92,9.97-2.62,.96-5.33,1.57-8.13,1.66-4.11,0-7.43-1.66-9.88-4.98-2.1-2.8-3.24-5.94-3.24-9.35,0-5.42-.61-10.84-.35-16.52m10.93,.35c.17,3.58,.44,7.78,.7,11.98,.09,1.14,.35,2.27,.87,3.32,1.23,2.01,3.24,2.36,5.07,.79,.87-.7,1.48-1.57,1.75-2.62,.26-.96,.44-1.92,.52-2.88,.7-7.69,.35-15.3-.26-22.9-.17-1.75-.44-3.58-.87-5.24-.79-2.8-3.85-3.5-5.86-1.4-.87,.79-1.4,1.84-1.57,2.97-.17,1.22-.35,2.53-.35,3.85-.09,3.85-.18,7.69,0,12.15"/><path class="h" d="M361.18,439.7c-.17,6.91-.52,12.94-1.4,18.88-.61,3.85-2.27,7.08-4.98,9.79-1.49,1.48-3.24,2.53-5.33,3.06-4.9,1.14-9.88,1.31-14.86,.96-1.92-.17-3.15-1.22-3.76-3.06-.35-1.14-.61-2.27-.61-3.5-.18-7.52-.26-15.04-.52-22.47-.35-9.7,0-19.41,0-29.11,0-3.32,.7-4.11,3.93-4.72,.35-.09,.7-.09,1.05-.09,3.58-.09,7.17-.09,10.75,.26,1.92,.26,3.76,.79,5.51,1.66,4.11,1.92,6.99,4.98,8.48,9.44,1.4,4.37,1.75,8.92,1.75,13.46v5.42Zm-21.33-1.66c.26,6.64,.52,12.15,.7,17.66,.09,.87,.17,1.83,.26,2.71,.17,1.05,.79,1.49,1.83,1.4,3.32-.09,6.12-2.36,6.91-5.6,.18-1.05,.26-2.1,.26-3.24,.26-8.57-1.31-16.87-3.15-25.17-.26-1.23-.7-2.45-1.22-3.67-.52-.88-1.14-1.57-2.1-2.01-2.88-1.49-4.37-.52-4.28,2.62v.44c.18,5.33,.88,10.67,.79,14.86"/><path class="h" d="M392.82,442.49c-.09-8.48,.35-16.96,.52-25.44,0-3.15,.96-4.2,4.11-4.63,3.41-.53,6.9-.79,10.4-.7,5.51,0,9.09,2.45,10.93,7.61,1.31,3.5,2.19,7.17,2.19,10.84,0,4.9-1.84,9.18-5.33,12.76-1.31,1.31-3.06,2.01-4.81,2.62-1.31,.35-2.62,.79-3.93,1.14-2.36,.7-2.54,.87-2.45,3.5,.18,5.07,.44,10.23,.7,15.39,.09,.87,.17,1.66,.09,2.53-.09,1.83-.7,2.71-2.45,3.06-1.92,.35-3.93,.61-5.94,.79-2.19,.09-3.5-1.05-3.59-3.32-.17-3.24-.35-6.56-.35-9.79-.09-2.71-.09-5.42-.09-8.13v-8.22Zm11.1-13.29c.09,1.22,.18,3.06,.35,4.81,.17,1.4,.79,1.84,2.19,1.49,1.66-.44,2.97-1.31,3.5-3.06,.79-2.45,.7-4.89-.26-7.34-.61-1.75-2.19-2.62-4.02-2.45-1.22,.17-1.66,.53-1.75,1.75v4.81Z"/><path class="h" d="M426.6,442.76c.44-9.71,.44-18.18,1.05-26.66,.35-4.02,1.75-5.42,5.86-5.51,3.15-.09,4.11,.88,4.28,4.2,.17,6.38-.35,12.76-.7,19.23-.44,8.22-.79,16.35-.35,24.57v.7c.18,2.19,.52,2.54,2.71,2.54,.96,0,1.92-.09,2.8-.09,.7,0,1.49,0,2.19,.09,1.75,.09,2.88,1.05,3.32,2.8,.26,.96,.61,2.01,.61,3.15,0,1.57-.7,2.45-2.27,2.89-.35,.09-.7,.17-1.14,.17-4.46,.17-8.92,.88-13.38,.61-3.23-.26-4.46-1.22-4.55-4.46-.26-8.48-.52-16.96-.44-24.21"/><path class="h" d="M488.24,466.01c.17,4.55-1.14,5.86-5.24,5.77-3.15-.18-4.29-1.14-4.64-4.11-.61-5.24-1.22-10.49-1.75-15.74-.35-3.41-.61-3.58-3.93-3.58-1.05,0-2.19-.09-3.23,0-2.01,.09-2.54,.44-2.8,2.45-.7,4.9-1.92,9.61-2.8,14.51-.18,.87-.35,1.83-.61,2.71-.09,.44-.17,.79-.35,1.22-.7,1.66-2.19,2.19-3.85,2.27-1.92,.09-4.02,.44-5.51-1.4-.7-.88-.61-2.01-.52-3.06,.35-3.85,1.14-7.6,1.92-11.36,2.36-11.71,4.02-23.52,5.77-35.23,.26-1.75,.26-3.5,.52-5.16,.26-2.1,1.05-2.88,3.06-3.23,4.37-.96,8.83-.7,13.2-.35,1.92,.18,3.06,1.22,3.58,3.15,3.58,13.02,5.77,26.31,6.47,39.86,.18,3.85,.26,7.78,.7,11.28m-16.35-27.1c-.26,0-.09,0,0,0,2.62,.09,2.71,0,2.36-2.62-.61-3.58-1.22-7.17-1.84-10.75-.09-.61-.35-1.22-.52-1.84-.17-.44-.61-.7-1.05-.61-.52,0-.79,.35-.88,.79-.17,.52-.35,1.05-.35,1.66-.44,3.23-.88,6.47-1.31,9.7q-.44,3.59,3.58,3.67"/><path class="h" d="M519.74,443.37c0-2.45,.17-4.81,0-7.26-.35-6.03-.26-12.15-.52-18.18-.09-3.58,1.14-4.81,4.81-4.63,3.15,.17,4.46,1.31,4.81,4.55,.44,5.16,.79,10.4,.88,15.56,.09,8.83,.7,17.57,.87,26.31,0,2.19-.09,4.28-.09,6.47,0,.79,0,1.66-.26,2.54-.44,1.22-1.23,1.92-2.54,2.01-2.71,0-5.51,0-8.31-.26-1.4-.09-2.36-.87-2.88-2.19-.17-.26-.35-.61-.44-.96-1.75-6.03-4.02-11.89-6.03-17.83-1.4-4.11-3.06-8.13-4.63-12.24-.09-.26-.18-.61-.79-.79-.35,.79-.17,1.66-.17,2.45,.17,8.83,.35,17.66,.61,26.57,0,1.14,.09,2.36-.09,3.59-.26,1.4-1.05,2.36-2.45,2.62-1.49,.26-2.97,.35-4.46,0-1.75-.35-2.45-1.22-2.62-2.97,0-.17-.09-.35-.09-.61,0-11.01-1.22-21.94-1.22-32.96,.09-6.12,0-12.24,0-18.36,0-.52,0-1.05,.09-1.49,.26-2.18,1.05-3.06,3.23-3.23,2.62-.09,5.24-.09,7.96,.26,2.54,.35,4.2,1.57,4.9,4.11,.17,.79,.52,1.66,.7,2.45,2.18,7.34,4.9,14.6,7.34,21.94,.26,.88,.7,1.84,1.05,2.71,.09-.09,.26-.09,.35-.18"/><path class="h" d="M563.2,443.37c0-2.45,.17-4.81,0-7.26-.35-6.03-.26-12.15-.52-18.18-.09-3.58,1.14-4.81,4.81-4.63,3.15,.17,4.46,1.31,4.81,4.55,.44,5.16,.79,10.4,.88,15.56,.09,8.83,.7,17.57,.87,26.31,0,2.19-.09,4.28-.09,6.47,0,.79,0,1.66-.26,2.54-.44,1.22-1.23,1.92-2.54,2.01-2.71,0-5.51,0-8.3-.26-1.4-.09-2.36-.87-2.88-2.19-.17-.26-.35-.61-.44-.96-1.75-6.03-4.02-11.89-6.03-17.83-1.4-4.11-3.06-8.13-4.63-12.24-.09-.26-.18-.61-.79-.79-.35,.79-.17,1.66-.17,2.45,.17,8.83,.35,17.66,.61,26.57,0,1.14,.09,2.36-.09,3.59-.26,1.4-1.05,2.36-2.45,2.62-1.49,.26-2.97,.35-4.46,0-1.75-.35-2.45-1.22-2.62-2.97,0-.17-.09-.35-.09-.61,0-11.01-1.22-21.94-1.22-32.96,.09-6.12,0-12.24,0-18.36,0-.52,0-1.05,.09-1.49,.26-2.18,1.05-3.06,3.23-3.23,2.62-.09,5.24-.09,7.96,.26,2.54,.35,4.2,1.57,4.9,4.11,.17,.79,.52,1.66,.7,2.45,2.18,7.34,4.9,14.6,7.34,21.94,.26,.88,.7,1.84,1.05,2.71,.09-.09,.26-.09,.35-.18"/><path class="h" d="M581.72,439.26c0-6.03,.7-13.73,.96-21.42,.09-.87,.09-1.75,.09-2.62,.09-.61,.17-1.22,.35-1.84,.53-2.1,2.1-2.8,5.33-2.71,2.45,.18,3.41,.88,3.85,2.97,.09,.96,.17,1.83,.17,2.8-.26,12.94-.17,25.96-1.22,38.9-.35,4.02-.87,8.13-.96,12.15-.09,2.45-1.22,3.41-3.67,3.5-.79,0-1.49-.09-2.19-.17-2.1-.44-3.06-1.49-3.32-3.58,0-.44-.09-.88-.09-1.31-.09-8.31,.09-16.7,.7-26.66"/><path class="h" d="M625.24,443.37c0-2.45,.17-4.81,0-7.26-.35-6.03-.26-12.15-.52-18.18-.09-3.58,1.14-4.81,4.81-4.63,3.15,.17,4.46,1.31,4.81,4.55,.44,5.16,.79,10.4,.88,15.56,.09,8.83,.7,17.57,.87,26.31,0,2.19-.09,4.28-.09,6.47,0,.79,0,1.66-.26,2.54-.44,1.22-1.22,1.92-2.54,2.01-2.71,0-5.51,0-8.3-.26-1.4-.09-2.36-.87-2.88-2.19-.17-.26-.35-.61-.44-.96-1.75-6.03-4.02-11.89-6.03-17.83-1.4-4.11-3.06-8.13-4.64-12.24-.09-.26-.17-.61-.79-.79-.35,.79-.17,1.66-.17,2.45,.17,8.83,.35,17.66,.61,26.57,0,1.14,.09,2.36-.09,3.59-.26,1.4-1.05,2.36-2.45,2.62-1.49,.26-2.97,.35-4.46,0-1.75-.35-2.45-1.22-2.62-2.97,0-.17-.09-.35-.09-.61,0-11.01-1.22-21.94-1.22-32.96,.09-6.12,0-12.24,0-18.36,0-.52,0-1.05,.09-1.49,.26-2.18,1.05-3.06,3.23-3.23,2.62-.09,5.24-.09,7.95,.26,2.54,.35,4.2,1.57,4.9,4.11,.17,.79,.52,1.66,.7,2.45,2.18,7.34,4.9,14.6,7.34,21.94,.26,.88,.7,1.84,1.05,2.71,.09-.09,.26-.09,.35-.18"/><path class="h" d="M642.68,439.26c.26-5.42,.17-10.93,.26-16.52,0-1.4,.26-2.8,.52-4.28,1.75-9,12.24-11.89,18.79-8.3,4.64,2.62,7.52,6.47,7.96,11.89,.26,2.45,.35,4.98,.35,7.43,.09,2.36-.61,3.23-2.8,3.93-1.4,.44-2.8,.88-4.2,.96-2.1,.09-2.89-.7-3.06-2.71-.17-1.92-.26-3.85-.44-5.77-.09-1.57-.35-3.15-1.14-4.54-.79-1.75-2.28-1.93-3.5-.35-.79,.87-1.22,2.01-1.31,3.32-.79,9.7-.96,19.49,.44,29.2,.26,1.4,.44,2.89,1.4,4.02,1.57,2.01,3.85,1.92,5.07-.17,1.49-2.45,1.49-5.07,1.22-7.69-.09-.79-.79-.96-1.48-.96-.88,0-1.84,.09-2.8,.09-1.92-.18-3.15-1.31-3.32-3.24-.17-1.66-.17-3.41-.09-5.16,.09-1.75,.79-2.54,2.53-2.97,.96-.26,2.01-.26,2.97-.35,2.36-.26,4.81-.52,7.26-.61,2.8-.18,4.11,.79,4.37,3.5,.7,6.73,1.23,13.55,.35,20.28-1.22,9.97-12.24,15.74-20.98,11.19-3.06-1.57-5.16-4.11-6.21-7.34-.7-2.27-1.22-4.55-1.4-6.91-.26-5.94-.52-11.8-.79-17.92"/><path class="i" d="M618.14,357.61c.87,9.25-.29,18.5-1.45,27.75-.29,3.18-.87,6.65-2.89,8.67-2.02,2.02-4.92,2.6-7.52,3.18-6.07,1.16-11.85,1.44-18.21,1.44h-46.25c-6.07,0-12.43,0-18.5-.57-5.49-.58-11.27-2.02-14.74-6.07-2.31-3.18-2.89-7.23-3.47-10.99-2.89-25.73-1.45-52.9-.87-78.63,.58-19.08,1.73-38.16,1.45-57.24-.29-19.95-1.73-40.18,2.02-59.84,1.16-4.92,2.6-10.12,6.36-13.3,2.31-2.31,5.49-3.47,8.68-4.34,8.96-2.31,17.92-2.31,26.88-.86,2.31,.58,4.34,1.44,6.36,2.02,5.49,6.07,5.2,13.3,4.34,20.53-.87,6.36-.58,13.01-.58,19.37v43.94c0,17.92,.29,35.56,0,53.48-.29,12.43-2.31,24.86-2.02,37.58,0,1.16,0,2.31,.87,3.18,.29,.29,.29,.58,.58,.58,1.16,.87,2.6,.87,4.05,.87,14.74-.58,29.48-2.02,44.23-.58,3.18,.58,6.07,.87,8.1,3.18,1.74,1.73,2.31,4.33,2.6,6.65"/><path class="g" d="M689.24,292.01c.87,9.25-.29,18.5-1.45,27.75-.29,3.18-.87,6.65-2.89,8.67-2.02,2.02-4.92,2.6-7.52,3.18-6.07,1.16-11.85,1.44-18.21,1.44h-46.25c-6.07,0-12.43,0-18.5-.57-5.49-.58-11.27-2.02-14.74-6.07-2.31-3.18-2.89-7.23-3.47-10.99-2.89-25.73-1.45-52.9-.87-78.63,.58-19.08,1.74-38.16,1.45-57.24-.29-19.95-1.73-40.18,2.02-59.84,1.16-4.92,2.6-10.12,6.36-13.3,2.31-2.31,5.49-3.47,8.68-4.34,8.96-2.31,17.92-2.31,26.88-.86,2.31,.58,4.34,1.44,6.36,2.02,5.49,6.07,5.2,13.3,4.34,20.53-.87,6.36-.58,13.01-.58,19.37v43.94c0,17.92,.29,35.56,0,53.48-.29,12.43-2.31,24.86-2.03,37.58,0,1.16,0,2.31,.87,3.18,.29,.29,.29,.58,.58,.58,1.16,.87,2.6,.87,4.05,.87,14.74-.58,29.49-2.02,44.23-.58,3.18,.58,6.07,.87,8.1,3.18,1.74,1.73,2.31,4.33,2.6,6.65"/></g></g></g></svg>