<?xml version="1.0" encoding="UTF-8"?><svg xmlns="http://www.w3.org/2000/svg" viewBox="0 0 222.63 152.4"><defs><style>.d{fill:#fff;}.e{fill:#8dc63f;}</style></defs><g id="a"/><g id="b"><g id="c"><path class="e" d="M1.98,25.94V1.3h6.14V21.3h8.81l.39,4.63H1.98Zm25.37,.28c-5.55,0-8.28-2.42-8.28-8.18,0-6.28,3.44-9.44,8.77-9.44,4.77,0,6.77,2.98,6.77,8.07,0,.46-.07,1.75-.21,2.53h-9.37c.25,1.9,1.33,2.77,3.37,2.77,1.83,0,3.79-.6,5.34-1.23l1.19,3.65c-2,1.09-4.63,1.82-7.58,1.82Zm2.18-10.49c0-1.89-.67-2.91-1.93-2.91-1.61,0-2.42,.98-2.53,3.05h4.46v-.14Zm15.27,2c.21,.7,.32,1.37,.32,1.82,0-.46,.11-1.16,.32-1.82l2.88-8.67h5.37l-6.35,16.88h-5.41l-6-16.88h6.21l2.67,8.67Zm18.18,8.49c-5.55,0-8.28-2.42-8.28-8.18,0-6.28,3.44-9.44,8.77-9.44,4.77,0,6.77,2.98,6.77,8.07,0,.46-.07,1.75-.21,2.53h-9.37c.25,1.9,1.33,2.77,3.37,2.77,1.83,0,3.79-.6,5.33-1.23l1.19,3.65c-2,1.09-4.63,1.82-7.58,1.82Zm2.18-10.49c0-1.89-.67-2.91-1.93-2.91-1.61,0-2.42,.98-2.53,3.05h4.46v-.14Zm18.92-1.54c-.7-.07-1.19-.14-1.68-.14-1.3,0-1.65,.32-2.88,1.72v10.18h-5.93V8.98l4.74-.28c.25,.53,.46,1.9,.56,2.91,1.23-2.42,2.07-2.88,3.51-2.88,.77,0,1.65,.14,2.32,.35l-.63,5.09Zm6.6,12.04c-2.7,0-4.91-2.04-4.91-5.37,0-2.49,1.37-4.18,9.55-4.81v-1.68c0-1.12-.32-1.44-1.19-1.44-1.79,0-3.83,.74-5.55,1.89l-2.21-3.51c2.63-1.9,5.44-2.84,9.2-2.84,4.28,0,5.72,2.11,5.72,5.44v7.16c0,.42,.35,.53,1.86,.81l-.95,4.25c-.63,.03-1.19,.03-1.68,.03-3.23,0-4.39-.67-4.98-1.97-1.37,1.51-2.77,2.04-4.84,2.04Zm.7-5.55c0,1.05,.6,1.79,1.58,1.79s1.83-.46,2.32-.91v-2.56c-3.61,.31-3.9,.7-3.9,1.68Zm31.44-9.41c-.91-.1-1.54-.14-2.07-.14-.49,0-.7,.25-.91,.81,.49,.74,.88,1.97,.88,2.98,0,4.21-3.97,6-8.42,6-.1,.25-.21,.74-.21,1.02,0,.46,.14,.6,.7,.6h3.37c3.65,0,5.48,1.16,5.48,4.49,0,3.54-3.68,7.02-10.04,7.02-5.09,0-7.79-1.37-7.79-4.11,0-1.55,.84-2.81,3.61-4.63-.21-.28-.32-.6-.32-1.12,0-1.02,.32-1.79,1.75-3.69-2.39-.49-4.25-2.25-4.25-5.09,0-4.28,3.47-6.77,8.32-6.77,1.68,0,2.98,.35,4.14,.91,.7-2.91,1.47-3.72,3.4-3.72,.91,0,1.89,.14,2.77,.42l-.42,5.02Zm-7.51,15.65h-5.86c-.25,.39-.42,.91-.42,1.33,0,.91,.88,1.65,3.4,1.65,2.77,0,4-1.12,4-1.97,0-.53-.25-1.02-1.12-1.02Zm-2.53-14.25c-1.72,0-2.46,.88-2.46,2.42s.84,2.25,2.28,2.25c1.33,0,2.42-.63,2.42-2.39,0-1.47-.74-2.28-2.25-2.28Zm19.9,13.55c-5.55,0-8.28-2.42-8.28-8.18,0-6.28,3.44-9.44,8.77-9.44,4.77,0,6.77,2.98,6.77,8.07,0,.46-.07,1.75-.21,2.53h-9.37c.25,1.9,1.33,2.77,3.37,2.77,1.83,0,3.79-.6,5.33-1.23l1.19,3.65c-2,1.09-4.63,1.82-7.58,1.82Zm2.18-10.49c0-1.89-.67-2.91-1.93-2.91-1.61,0-2.42,.98-2.53,3.05h4.46v-.14Zm25.44-11.16c-.98-.21-1.75-.32-2.39-.32-.6,0-.77,.25-.77,1.05v3.76h3.44l-.35,4.14h-3.09v12.74h-5.97V13.2l-1.97-.14,.32-4h1.65v-3.33c0-3.97,1.37-5.72,5.44-5.72,1.54,0,3.4,.32,4.46,.63l-.77,3.93Zm13.3,9.62c-.7-.07-1.19-.14-1.69-.14-1.3,0-1.65,.32-2.88,1.72v10.18h-5.93V8.98l4.74-.28c.25,.53,.46,1.9,.56,2.91,1.23-2.42,2.07-2.88,3.51-2.88,.77,0,1.65,.14,2.32,.35l-.63,5.09Zm10,12.04c-5.72,0-8.28-2.81-8.28-8.56,0-5.44,3.41-9.06,9.06-9.06s8.39,2.7,8.39,8.46c0,5.26-3.19,9.16-9.16,9.16Zm.49-13.44c-1.65,0-2.6,1.4-2.6,4.42,0,3.69,.6,4.91,2.42,4.91,1.97,0,2.67-1.44,2.67-4.88s-.74-4.46-2.49-4.46Zm30.99,1.96c0-.91-.39-1.19-1.12-1.19s-1.79,.56-2.77,1.4v10.99h-5.76V14.74c0-.91-.39-1.19-1.12-1.19s-1.82,.56-2.81,1.4v10.99h-5.76V8.98l5.12-.28c.21,.53,.39,1.51,.49,2.32,1.75-1.47,3.68-2.49,5.44-2.49,2.7,0,3.72,1.12,4.18,2.6,1.37-1.26,3.55-2.6,5.33-2.6,3.47,0,4.56,1.58,4.56,4.7v12.71h-5.79V14.74Z"/><path class="d" d="M27.06,103.12c-3.52,2.13-7.41,3.15-11.58,3.15-6.49,0-9.36-3.06-9.36-9.82v-29.47l-6.12-.19,.37-3.24,5.75-.37,.83-14.18,3.8-.37v14.46h15.1l-.28,4.08H10.75v28.82c0,4.54,1.57,6.21,5.65,6.21,3.06,0,6.3-1.02,9.36-2.69l1.3,3.61Zm34,2.5v-31.69c0-4.17-1.39-7.88-6.95-7.88-4.17,0-10.56,2.97-16.03,8.62v30.95h-4.63V40.57l4.63-.37v30.21c6.49-6.21,12.05-8.15,17.42-8.15,7.78,0,10.19,3.89,10.19,11.31v32.06h-4.63Zm29.18,.56c-9.73,0-17.33-5.28-17.33-19.46,0-15.85,7.78-24.46,20.01-24.46,9.17,0,13.9,6.12,13.9,15.48,0,1.67-.28,4.35-.37,5.47h-28.91c-.09,1.85-.09,2.87-.09,3.61,0,10.84,5.84,15.1,14.18,15.1,4.45,0,8.71-1.76,13.53-5l1.95,3.43c-4.73,3.71-9.73,5.84-16.86,5.84Zm11.95-27.98c0-7.6-3.52-12.05-9.91-12.05-7.5,0-13.07,4.45-14.36,13.34h24.28v-1.3Zm23.53,27.43V43.44h35.49l-.28,3.89h-30.39v23.91h26.32v3.98h-26.32v26.5h30.39l.28,3.89h-35.49Zm71.53,.56c-17.33,0-22.89-8.43-22.89-23.81V43.44h4.73v38.08c0,13.62,4.63,20.57,18.35,20.57s19.09-7.6,19.09-21.59V43.44h4.54v37.34c0,15.01-7.13,25.39-23.81,25.39ZM7.45,141.28c.28-.22,.6-.46,.96-.75,.36-.29,.75-.59,1.16-.91,.41-.32,.79-.62,1.15-.91,.36-.29,.68-.54,.95-.75,.27-.22,.46-.36,.55-.44,.93-.72,1.77-1.4,2.49-2.03,.73-.63,1.36-1.23,1.91-1.79,.54-.56,1-1.1,1.38-1.62,.37-.52,.68-1.03,.91-1.54,.23-.51,.4-1.02,.51-1.53,.1-.51,.16-1.05,.16-1.6,0-1.01-.18-1.96-.52-2.84-.34-.88-.86-1.65-1.55-2.31-.69-.66-1.54-1.17-2.56-1.55-1.02-.38-2.21-.56-3.56-.56-.94,0-1.81,.07-2.62,.21-.81,.14-1.6,.37-2.37,.67-.77,.31-1.54,.7-2.31,1.17-.77,.48-1.59,1.05-2.45,1.73l1.76,2.64c.82-.61,1.55-1.1,2.2-1.48,.65-.38,1.26-.67,1.82-.88,.56-.21,1.1-.35,1.62-.43,.51-.08,1.04-.11,1.58-.11,.73,0,1.4,.1,2.01,.3,.6,.21,1.11,.49,1.54,.86,.42,.38,.75,.83,.98,1.35,.23,.52,.35,1.1,.35,1.73,0,.38-.04,.76-.12,1.12-.08,.37-.22,.74-.41,1.13-.2,.39-.46,.79-.78,1.21-.33,.42-.74,.87-1.23,1.36-.49,.49-1.07,1.02-1.75,1.59-.68,.57-1.46,1.2-2.34,1.88-.33,.26-.7,.55-1.11,.86-.41,.31-.83,.64-1.28,.97-.44,.34-.89,.68-1.35,1.02-.46,.34-.9,.68-1.33,1-1,.75-2.03,1.52-3.09,2.3l.37,2.44H20.41l.37-3.11H6.88c.1-.08,.29-.22,.57-.44Zm29.76-21.08c-1.28,0-2.48,.15-3.58,.44-1.11,.29-2.11,.7-3.02,1.24-.91,.54-1.72,1.18-2.42,1.94-.71,.76-1.3,1.61-1.78,2.55-.48,.94-.85,1.95-1.1,3.04-.25,1.09-.38,2.24-.38,3.44,0,1.91,.22,3.63,.66,5.15,.44,1.51,1.12,2.8,2.03,3.85,.92,1.05,2.08,1.85,3.5,2.4,1.42,.55,3.11,.83,5.06,.83,1.32,0,2.53-.14,3.65-.43,1.11-.29,2.12-.71,3.04-1.24,.91-.54,1.71-1.19,2.41-1.96,.69-.77,1.28-1.63,1.76-2.58,.48-.95,.84-1.99,1.07-3.12,.24-1.13,.36-2.31,.36-3.56,0-3.94-.93-6.92-2.78-8.95-1.86-2.03-4.68-3.04-8.47-3.04Zm6.4,16.47c-.37,1.2-.88,2.2-1.54,2.99-.66,.78-1.45,1.37-2.37,1.75-.93,.39-1.95,.58-3.06,.58-1.33,0-2.47-.2-3.42-.61-.94-.4-1.72-1-2.32-1.8-.6-.79-1.04-1.78-1.32-2.96-.28-1.18-.42-2.54-.42-4.08,0-1.38,.17-2.63,.51-3.76,.34-1.13,.84-2.1,1.5-2.91,.66-.81,1.48-1.44,2.45-1.89,.96-.45,2.07-.67,3.31-.67,2.39,0,4.19,.75,5.4,2.25,1.21,1.5,1.82,3.78,1.82,6.83,0,1.65-.18,3.08-.55,4.28Zm8.43-12.52l6.68,.2v20.48h4.15v-23.95l-10.73,.4-.1,2.86Zm34.73-3.32l-3.83-.32c-2.44,3.16-4.89,6.32-7.34,9.46-2.45,3.14-4.9,6.28-7.35,9.42l.58,2.9h13.93v10.11l4-.2v-9.91h4.25l.2-3.05h-4.46v-18.41Zm-4,18.41h-10.62c1.8-2.29,3.57-4.58,5.33-6.85,1.75-2.27,3.52-4.55,5.29-6.84v13.69Zm11.77-5.86h24.89l.2-2.85h-24.78l-.3,2.85Zm35.35,7.9c.28-.22,.6-.46,.96-.75,.36-.29,.75-.59,1.16-.91,.41-.32,.79-.62,1.15-.91,.36-.29,.67-.54,.95-.75,.27-.22,.46-.36,.55-.44,.94-.72,1.77-1.4,2.49-2.03,.73-.63,1.36-1.23,1.91-1.79,.54-.56,1-1.1,1.38-1.62,.37-.52,.68-1.03,.91-1.54,.23-.51,.4-1.02,.51-1.53,.11-.51,.16-1.05,.16-1.6,0-1.01-.17-1.96-.52-2.84-.35-.88-.86-1.65-1.55-2.31-.69-.66-1.54-1.17-2.56-1.55-1.02-.38-2.21-.56-3.56-.56-.93,0-1.81,.07-2.62,.21-.81,.14-1.6,.37-2.37,.67-.77,.31-1.54,.7-2.31,1.17-.77,.48-1.59,1.05-2.45,1.73l1.76,2.64c.82-.61,1.55-1.1,2.2-1.48,.65-.38,1.25-.67,1.82-.88,.56-.21,1.1-.35,1.61-.43,.51-.08,1.04-.11,1.58-.11,.74,0,1.4,.1,2.01,.3,.6,.21,1.12,.49,1.54,.86,.42,.38,.75,.83,.98,1.35,.23,.52,.35,1.1,.35,1.73,0,.38-.04,.76-.12,1.12-.08,.37-.22,.74-.41,1.13-.19,.39-.46,.79-.78,1.21-.33,.42-.74,.87-1.23,1.36-.49,.49-1.07,1.02-1.75,1.59-.68,.57-1.46,1.2-2.34,1.88-.33,.26-.7,.55-1.11,.86-.41,.31-.83,.64-1.28,.97-.45,.34-.89,.68-1.35,1.02-.45,.34-.9,.68-1.33,1-1.01,.75-2.04,1.52-3.09,2.3l.37,2.44h19.34l.37-3.11h-13.9c.1-.08,.29-.22,.57-.44Zm29.76-21.08c-1.28,0-2.48,.15-3.58,.44-1.11,.29-2.11,.7-3.02,1.24-.91,.54-1.71,1.18-2.42,1.94-.71,.76-1.3,1.61-1.78,2.55-.48,.94-.85,1.95-1.1,3.04-.25,1.09-.38,2.24-.38,3.44,0,1.91,.22,3.63,.66,5.15,.44,1.51,1.12,2.8,2.03,3.85,.92,1.05,2.08,1.85,3.5,2.4,1.42,.55,3.11,.83,5.06,.83,1.32,0,2.53-.14,3.65-.43,1.11-.29,2.13-.71,3.04-1.24,.91-.54,1.72-1.19,2.41-1.96,.7-.77,1.28-1.63,1.76-2.58,.47-.95,.83-1.99,1.08-3.12,.24-1.13,.36-2.31,.36-3.56,0-3.94-.93-6.92-2.79-8.95-1.86-2.03-4.68-3.04-8.47-3.04Zm6.4,16.47c-.37,1.2-.88,2.2-1.54,2.99-.66,.78-1.45,1.37-2.37,1.75-.92,.39-1.94,.58-3.06,.58-1.33,0-2.47-.2-3.42-.61-.95-.4-1.72-1-2.32-1.8-.6-.79-1.04-1.78-1.32-2.96-.28-1.18-.42-2.54-.42-4.08,0-1.38,.17-2.63,.51-3.76,.34-1.13,.84-2.1,1.51-2.91,.66-.81,1.48-1.44,2.44-1.89,.97-.45,2.07-.67,3.31-.67,2.39,0,4.19,.75,5.4,2.25,1.21,1.5,1.82,3.78,1.82,6.83,0,1.65-.18,3.08-.55,4.28Zm15.58,4.61c.28-.22,.6-.46,.96-.75,.36-.29,.75-.59,1.16-.91,.41-.32,.79-.62,1.15-.91,.36-.29,.67-.54,.95-.75,.28-.22,.46-.36,.55-.44,.94-.72,1.77-1.4,2.49-2.03,.73-.63,1.36-1.23,1.91-1.79,.54-.56,1-1.1,1.38-1.62,.38-.52,.68-1.03,.91-1.54,.23-.51,.4-1.02,.51-1.53,.11-.51,.16-1.05,.16-1.6,0-1.01-.17-1.96-.52-2.84-.35-.88-.86-1.65-1.55-2.31-.69-.66-1.55-1.17-2.56-1.55-1.02-.38-2.21-.56-3.56-.56-.94,0-1.81,.07-2.62,.21-.81,.14-1.6,.37-2.37,.67-.77,.31-1.54,.7-2.31,1.17-.77,.48-1.59,1.05-2.45,1.73l1.76,2.64c.82-.61,1.55-1.1,2.2-1.48,.65-.38,1.25-.67,1.81-.88,.56-.21,1.1-.35,1.62-.43,.52-.08,1.04-.11,1.58-.11,.73,0,1.4,.1,2.01,.3,.6,.21,1.12,.49,1.54,.86,.42,.38,.75,.83,.98,1.35,.23,.52,.35,1.1,.35,1.73,0,.38-.04,.76-.12,1.12-.08,.37-.22,.74-.41,1.13-.19,.39-.45,.79-.79,1.21-.33,.42-.74,.87-1.23,1.36-.49,.49-1.07,1.02-1.75,1.59-.67,.57-1.45,1.2-2.34,1.88-.33,.26-.7,.55-1.1,.86-.41,.31-.84,.64-1.28,.97-.44,.34-.89,.68-1.35,1.02-.45,.34-.9,.68-1.33,1-1.01,.75-2.04,1.52-3.09,2.3l.37,2.44h19.34l.37-3.11h-13.9c.1-.08,.29-.22,.57-.44Zm29.76-21.08c-1.28,0-2.48,.15-3.58,.44-1.11,.29-2.11,.7-3.02,1.24-.91,.54-1.72,1.18-2.42,1.94-.71,.76-1.3,1.61-1.79,2.55-.48,.94-.85,1.95-1.1,3.04-.25,1.09-.38,2.24-.38,3.44,0,1.91,.22,3.63,.66,5.15,.44,1.51,1.12,2.8,2.03,3.85,.92,1.05,2.08,1.85,3.5,2.4,1.42,.55,3.1,.83,5.06,.83,1.32,0,2.53-.14,3.65-.43,1.11-.29,2.13-.71,3.04-1.24,.91-.54,1.71-1.19,2.41-1.96,.7-.77,1.29-1.63,1.76-2.58,.48-.95,.84-1.99,1.08-3.12,.24-1.13,.36-2.31,.36-3.56,0-3.94-.93-6.92-2.78-8.95-1.86-2.03-4.68-3.04-8.47-3.04Zm6.4,16.47c-.37,1.2-.88,2.2-1.54,2.99-.66,.78-1.45,1.37-2.37,1.75-.92,.39-1.94,.58-3.06,.58-1.33,0-2.47-.2-3.42-.61-.95-.4-1.72-1-2.32-1.8-.6-.79-1.04-1.78-1.32-2.96-.28-1.18-.42-2.54-.42-4.08,0-1.38,.17-2.63,.51-3.76,.34-1.13,.84-2.1,1.51-2.91,.66-.81,1.48-1.44,2.44-1.89,.96-.45,2.07-.67,3.31-.67,2.39,0,4.19,.75,5.4,2.25,1.21,1.5,1.82,3.78,1.82,6.83,0,1.65-.19,3.08-.55,4.28Z"/></g></g></svg>