<?xml version="1.0" encoding="utf-8"?>
<!-- Generator: Adobe Illustrator 24.1.3, SVG Export Plug-In . SVG Version: 6.00 Build 0)  -->
<svg version="1.1" id="Layer_1" xmlns="http://www.w3.org/2000/svg" xmlns:xlink="http://www.w3.org/1999/xlink" x="0px" y="0px"
	 viewBox="0 0 217.2 84.8" style="enable-background:new 0 0 217.2 84.8;" xml:space="preserve">
<style type="text/css">
	.st0{fill:none;}
	.st1{fill-rule:evenodd;clip-rule:evenodd;fill:#ffffff;}
</style>
<g>
	<rect x="1.3" y="0" class="st0" width="214.7" height="84.8"/>
	<g>
		<rect x="21.5" y="40.6" class="st1" width="9.2" height="3.7"/>
		<polygon class="st1" points="38.1,44.3 47.3,44.3 47.3,40.6 34.4,40.6 34.4,57.2 38.1,57.2 		"/>
		<path class="st1" d="M30.7,18.9v-3.8c-9.4,1.7-16.6,10-16.6,19.9v9.2h3.7v-9.2C17.8,27.2,23.3,20.6,30.7,18.9"/>
		<path class="st1" d="M51,40.6v11c0,9.1-7.4,16.6-16.6,16.6v3.7c11.2,0,20.2-9.1,20.2-20.2v-11H51z"/>
		<polygon class="st1" points="69.5,42.3 69.5,52.3 67.5,52.3 67.5,42.3 63.7,42.3 63.7,40.6 73.3,40.6 73.3,42.3 		"/>
		<path class="st1" d="M77.3,48.3L77.3,48.3c-0.6,0-1.4,0.1-1.9,0.2c-1.2,0.2-1.6,0.6-1.6,1.3c0,0.7,0.5,1.2,1.5,1.2
			c0.6,0,1.1-0.2,1.5-0.6c0.4-0.5,0.6-0.9,0.6-1.8V48.3z M79.1,47v3.1c0,1,0.1,1.7,0.2,2.2h-1.7c-0.1-0.4-0.1-0.8-0.1-1.2h0
			c-0.6,0.9-1.5,1.3-2.8,1.3c-1.7,0-2.8-1.1-2.8-2.5c0-1.4,0.8-2.2,3.2-2.6c0.7-0.1,1.7-0.2,2.2-0.2v-0.3c0-1.2-0.7-1.7-1.6-1.7
			c-1,0-1.6,0.6-1.6,1.5h-1.8c0.1-1.6,1.2-2.8,3.5-2.8C77.9,43.7,79.1,44.8,79.1,47z"/>
		<path class="st1" d="M92.8,47.1v5.1h-1.9v-5c0-1.5-0.6-2.1-1.5-2.1c-1.1,0-1.8,0.9-1.8,2.5v4.5h-1.9v-5.2c0-1.2-0.5-1.9-1.5-1.9
			c-1.1,0-1.8,1-1.8,2.6v4.5h-1.9v-8.3h1.8v1h0c0.6-0.8,1.3-1.2,2.3-1.2c1.1,0,2,0.5,2.5,1.5c0.6-1,1.4-1.5,2.7-1.5
			C91.7,43.7,92.8,44.9,92.8,47.1"/>
		<path class="st1" d="M96.1,48.1L96.1,48.1c0,1.8,0.8,2.9,2,2.9c1.3,0,2.1-1.1,2.1-2.9c0-1.8-0.8-2.9-2.1-2.9
			C96.9,45.2,96.1,46.3,96.1,48.1 M102.1,48.1c0,2.7-1.3,4.4-3.5,4.4c-1,0-2-0.5-2.4-1.3h0v4.1h-1.9V43.9h1.8v1.1h0
			c0.5-0.9,1.4-1.4,2.5-1.4C100.8,43.7,102.1,45.4,102.1,48.1z"/>
		<path class="st1" d="M104.7,47.3L104.7,47.3h4.2c-0.1-1.5-1-2.2-2.1-2.2C105.7,45.1,104.9,45.8,104.7,47.3 M108.8,49.8h1.9
			c-0.3,1.5-1.7,2.8-3.8,2.8c-2.5,0-4-1.8-4-4.5c0-2.5,1.5-4.3,4-4.3c1.9,0,3.3,1.1,3.7,2.8c0.2,0.5,0.2,1.1,0.2,2h-6.1
			c0.1,1.9,1,2.7,2.2,2.7C107.9,51.1,108.6,50.6,108.8,49.8z"/>
		<path class="st1" d="M116.7,43.9v1.7c-0.2,0-0.4-0.1-0.7-0.1c-1.5,0-2.3,1-2.3,2.7v4.1h-1.9v-8.3h1.7v1.2h0
			c0.6-0.9,1.3-1.3,2.4-1.3C116.2,43.8,116.5,43.9,116.7,43.9"/>
		<path class="st1" d="M118.7,47.3L118.7,47.3h4.2c-0.1-1.5-1-2.2-2.1-2.2C119.7,45.1,118.9,45.8,118.7,47.3 M122.8,49.8h1.9
			c-0.3,1.5-1.7,2.8-3.8,2.8c-2.5,0-4-1.8-4-4.5c0-2.5,1.5-4.3,4-4.3c1.9,0,3.3,1.1,3.7,2.8c0.2,0.5,0.2,1.1,0.2,2h-6.1
			c0.1,1.9,1,2.7,2.2,2.7C122,51.1,122.6,50.6,122.8,49.8z"/>
		<path class="st1" d="M127.4,47.3L127.4,47.3h4.2c-0.1-1.5-1-2.2-2.1-2.2C128.3,45.1,127.5,45.8,127.4,47.3 M131.4,49.8h1.9
			c-0.3,1.5-1.7,2.8-3.8,2.8c-2.5,0-4-1.8-4-4.5c0-2.5,1.5-4.3,4-4.3c1.9,0,3.3,1.1,3.7,2.8c0.2,0.5,0.2,1.1,0.2,2h-6.1
			c0.1,1.9,1,2.7,2.2,2.7C130.6,51.1,131.3,50.6,131.4,49.8z"/>
		<path class="st1" d="M141.9,47.2v5.1H140v-4.9c0-1.5-0.6-2.1-1.7-2.1c-1.1,0-1.9,0.8-1.9,2.4v4.6h-1.9v-8.3h1.8V45h0
			c0.5-0.8,1.4-1.3,2.5-1.3C140.7,43.7,141.9,44.9,141.9,47.2"/>
		<path class="st1" d="M69.1,64.9L69.1,64.9c-0.6,0-1.4,0.1-1.9,0.2c-1.2,0.2-1.6,0.6-1.6,1.3c0,0.7,0.5,1.2,1.5,1.2
			c0.6,0,1.1-0.2,1.5-0.6c0.4-0.5,0.6-0.9,0.6-1.8V64.9z M70.9,63.5v3.1c0,1,0.1,1.7,0.2,2.2h-1.7c-0.1-0.4-0.1-0.8-0.1-1.2h0
			c-0.6,0.9-1.5,1.3-2.8,1.3c-1.7,0-2.8-1-2.8-2.5c0-1.4,0.8-2.2,3.2-2.6c0.7-0.1,1.7-0.2,2.2-0.2v-0.3c0-1.2-0.7-1.7-1.6-1.7
			c-1,0-1.6,0.6-1.6,1.5H64c0.1-1.6,1.2-2.8,3.5-2.8C69.7,60.2,70.9,61.3,70.9,63.5z"/>
		<path class="st1" d="M84.6,63.7v5.1h-1.9v-4.9c0-1.5-0.6-2.1-1.5-2.1c-1.1,0-1.8,0.9-1.8,2.5v4.5h-1.9v-5.1c0-1.2-0.5-1.9-1.5-1.9
			c-1.1,0-1.8,1-1.8,2.6v4.5h-1.9v-8.3h1.8v1h0c0.6-0.8,1.3-1.2,2.3-1.2c1.1,0,2,0.5,2.5,1.5c0.6-1,1.4-1.5,2.7-1.5
			C83.5,60.3,84.6,61.4,84.6,63.7"/>
		<path class="st1" d="M98.2,63.7v5.1h-1.9v-4.9c0-1.5-0.6-2.1-1.5-2.1c-1.1,0-1.8,0.9-1.8,2.5v4.5h-1.9v-5.1c0-1.2-0.5-1.9-1.5-1.9
			c-1.1,0-1.8,1-1.8,2.6v4.5h-1.9v-8.3h1.8v1h0c0.6-0.8,1.3-1.2,2.3-1.2c1.1,0,2,0.5,2.5,1.5c0.6-1,1.4-1.5,2.7-1.5
			C97.1,60.3,98.2,61.4,98.2,63.7"/>
		<path class="st1" d="M104.6,64.9L104.6,64.9c-0.6,0-1.4,0.1-1.9,0.2c-1.2,0.2-1.6,0.6-1.6,1.3c0,0.7,0.5,1.2,1.5,1.2
			c0.6,0,1.1-0.2,1.5-0.6c0.4-0.5,0.6-0.9,0.6-1.8V64.9z M106.4,63.5v3.1c0,1,0.1,1.7,0.2,2.2H105c-0.1-0.4-0.1-0.8-0.1-1.2h0
			c-0.6,0.9-1.5,1.3-2.8,1.3c-1.7,0-2.8-1-2.8-2.5c0-1.4,0.8-2.2,3.2-2.6c0.7-0.1,1.7-0.2,2.2-0.2v-0.3c0-1.2-0.7-1.7-1.6-1.7
			c-1,0-1.6,0.6-1.6,1.5h-1.8c0.1-1.6,1.2-2.8,3.5-2.8C105.2,60.2,106.4,61.3,106.4,63.5z"/>
		<path class="st1" d="M111.9,67.3v1.5c-0.3,0.1-0.7,0.1-1,0.1c-1.8,0-2.5-0.7-2.5-2.6v-4.4h-1.4v-1.4h1.4v-2.1h1.9v2.1h1.6v1.4
			h-1.6v4.2c0,0.9,0.3,1.3,1.1,1.3C111.6,67.4,111.8,67.4,111.9,67.3"/>
		<path class="st1" d="M117.2,67.3v1.5c-0.3,0.1-0.7,0.1-1,0.1c-1.8,0-2.5-0.7-2.5-2.6v-4.4h-1.4v-1.4h1.4v-2.1h1.9v2.1h1.6v1.4
			h-1.6v4.2c0,0.9,0.3,1.3,1.1,1.3C116.8,67.4,117,67.4,117.2,67.3"/>
		<path class="st1" d="M118,68.8L118,68.8v-8.3h1.9v8.3H118z M118,58.9v-1.8h1.9v1.8H118z"/>
		<polygon class="st1" points="126.6,68.8 123.4,64.8 123.3,64.8 123.3,68.8 121.5,68.8 121.5,57.1 123.3,57.1 123.3,63.9 
			123.4,63.9 126.4,60.5 128.6,60.5 125.1,64.3 129,68.8 		"/>
		<path class="st1" d="M130.4,64.6L130.4,64.6c0,1.8,0.8,2.9,2.1,2.9c1.3,0,2.1-1.1,2.1-2.9c0-1.8-0.8-2.9-2.1-2.9
			C131.2,61.7,130.4,62.8,130.4,64.6 M136.6,64.6c0,2.7-1.6,4.4-4.1,4.4c-2.5,0-4.1-1.7-4.1-4.4c0-2.7,1.6-4.4,4.1-4.4
			C135,60.2,136.6,61.9,136.6,64.6z"/>
		<path class="st1" d="M142.6,60.5v1.7c-0.2,0-0.4-0.1-0.7-0.1c-1.5,0-2.3,1-2.3,2.7v4.1h-1.9v-8.3h1.7v1.2h0
			c0.6-0.9,1.3-1.3,2.4-1.3C142.1,60.4,142.4,60.4,142.6,60.5"/>
		<polygon class="st1" points="148.4,68.8 145.1,64.8 145.1,64.8 145.1,68.8 143.2,68.8 143.2,57.1 145.1,57.1 145.1,63.9 
			145.1,63.9 148.2,60.5 150.3,60.5 146.9,64.3 150.7,68.8 		"/>
		<path class="st1" d="M152,63.8L152,63.8h4.2c-0.1-1.5-1-2.2-2.1-2.2C153,61.6,152.2,62.4,152,63.8 M156.1,66.3h1.9
			c-0.3,1.5-1.7,2.8-3.8,2.8c-2.5,0-4-1.8-4-4.5c0-2.5,1.5-4.3,4-4.3c1.9,0,3.3,1.1,3.7,2.8c0.2,0.5,0.2,1.1,0.2,2H152
			c0.1,1.9,1,2.7,2.2,2.7C155.3,67.7,155.9,67.1,156.1,66.3z"/>
		<path class="st1" d="M164.1,64.9L164.1,64.9c-0.6,0-1.4,0.1-1.9,0.2c-1.2,0.2-1.6,0.6-1.6,1.3c0,0.7,0.5,1.2,1.5,1.2
			c0.6,0,1.1-0.2,1.5-0.6c0.4-0.5,0.6-0.9,0.6-1.8V64.9z M165.9,63.5v3.1c0,1,0.1,1.7,0.2,2.2h-1.7c-0.1-0.4-0.1-0.8-0.1-1.2h0
			c-0.6,0.9-1.5,1.3-2.8,1.3c-1.7,0-2.8-1-2.8-2.5c0-1.4,0.8-2.2,3.2-2.6c0.7-0.1,1.7-0.2,2.2-0.2v-0.3c0-1.2-0.7-1.7-1.6-1.7
			c-1,0-1.6,0.6-1.6,1.5H159c0.1-1.6,1.2-2.8,3.5-2.8C164.7,60.2,165.9,61.3,165.9,63.5z"/>
		<polygon class="st1" points="172.6,68.8 169.3,64.8 169.3,64.8 169.3,68.8 167.4,68.8 167.4,57.1 169.3,57.1 169.3,63.9 
			169.3,63.9 172.3,60.5 174.5,60.5 171.1,64.3 174.9,68.8 		"/>
		<path class="st1" d="M176.3,64.6L176.3,64.6c0,1.8,0.8,2.9,2.1,2.9s2.1-1.1,2.1-2.9c0-1.8-0.8-2.9-2.1-2.9S176.3,62.8,176.3,64.6
			 M182.6,64.6c0,2.7-1.6,4.4-4.1,4.4c-2.5,0-4.1-1.7-4.1-4.4c0-2.7,1.6-4.4,4.1-4.4C181,60.2,182.6,61.9,182.6,64.6z"/>
		<path class="st1" d="M183.6,65.6v-5.1h1.9v4.9c0,1.5,0.6,2.1,1.7,2.1c1.1,0,1.9-0.8,1.9-2.4v-4.6h1.9v8.3h-1.8v-1.1h0
			c-0.5,0.8-1.4,1.3-2.5,1.3C184.7,69,183.6,67.9,183.6,65.6"/>
		<rect x="192.5" y="57.1" class="st1" width="1.9" height="11.7"/>
		<path class="st1" d="M195.9,65.6v-5.1h1.9v4.9c0,1.5,0.6,2.1,1.7,2.1c1.1,0,1.9-0.8,1.9-2.4v-4.6h1.9v8.3h-1.8v-1.1h0
			c-0.5,0.8-1.4,1.3-2.5,1.3C197,69,195.9,67.9,195.9,65.6"/>
	</g>
</g>
</svg>
