<?xml version="1.0" encoding="utf-8"?>
<!-- Generator: Adobe Illustrator 24.1.2, SVG Export Plug-In . SVG Version: 6.00 Build 0)  -->
<svg version="1.1" id="Layer_1" xmlns="http://www.w3.org/2000/svg" xmlns:xlink="http://www.w3.org/1999/xlink" x="0px" y="0px"
	 viewBox="0 0 214.68 84.8" style="enable-background:new 0 0 214.68 84.8;" xml:space="preserve">
<style type="text/css">
	.st0{fill:none;}
	.st1{fill-rule:evenodd;clip-rule:evenodd;fill:#ffffff;}
</style>
<g>
	<rect y="0" class="st0" width="214.68" height="84.8"/>
	<g>
		<rect x="20.24" y="40.59" class="st1" width="9.2" height="3.68"/>
		<polygon class="st1" points="36.8,44.27 46,44.27 46,40.59 33.12,40.59 33.12,57.15 36.8,57.15 		"/>
		<path class="st1" d="M29.44,18.93v-3.75c-9.42,1.73-16.56,9.98-16.56,19.9v9.2h3.68v-9.2C16.56,27.19,22.07,20.6,29.44,18.93"/>
		<path class="st1" d="M49.68,40.59v11.04c0,9.14-7.41,16.56-16.56,16.56v3.68c11.18,0,20.24-9.06,20.24-20.24V40.59H49.68z"/>
		<path class="st1" d="M64.3,64.66L64.3,64.66c0,1.8,0.82,2.94,2.15,2.94c1.33,0,2.15-1.13,2.15-2.94c0-1.8-0.82-2.94-2.15-2.94
			C65.12,61.73,64.3,62.86,64.3,64.66 M70.55,64.66c0,2.71-1.57,4.41-4.1,4.41c-2.53,0-4.12-1.71-4.12-4.41
			c0-2.71,1.59-4.41,4.12-4.41C68.98,60.25,70.55,61.96,70.55,64.66z"/>
		<path class="st1" d="M73.94,59.83v0.67h1.61v1.43h-1.61v6.91h-1.85v-6.91h-1.41V60.5h1.41v-0.89c0-1.72,0.89-2.58,2.53-2.58
			c0.34,0,0.74,0.07,0.98,0.12v1.38c-0.11-0.03-0.3-0.07-0.46-0.07C74.33,58.46,73.94,58.84,73.94,59.83"/>
		<path class="st1" d="M86.04,63.04L86.04,63.04c-0.53-1.56-1.03-3.08-1.51-4.64H84.5c-0.48,1.56-0.95,3.08-1.49,4.64l-0.31,0.92
			h3.66L86.04,63.04z M82.1,65.67l-1.08,3.17h-2.07l4.25-11.68h2.64l4.25,11.68h-2.07l-1.08-3.17H82.1z"/>
		<path class="st1" d="M92.53,64.66L92.53,64.66c0,1.8,0.8,2.92,2.02,2.92c1.26,0,2.07-1.15,2.07-2.92c0-1.77-0.8-2.92-2.07-2.92
			C93.33,61.74,92.53,62.84,92.53,64.66 M98.56,64.66c0,2.66-1.34,4.36-3.46,4.36c-1.03,0-1.97-0.47-2.44-1.28h-0.03v4.12h-1.87
			V60.5h1.82v1.15h0.03c0.49-0.85,1.43-1.36,2.48-1.36C97.2,60.28,98.56,62.01,98.56,64.66z"/>
		<path class="st1" d="M101.49,64.66L101.49,64.66c0,1.8,0.8,2.92,2.02,2.92c1.26,0,2.07-1.15,2.07-2.92c0-1.77-0.8-2.92-2.07-2.92
			C102.29,61.74,101.49,62.84,101.49,64.66 M107.52,64.66c0,2.66-1.35,4.36-3.46,4.36c-1.03,0-1.97-0.47-2.44-1.28h-0.03v4.12h-1.87
			V60.5h1.82v1.15h0.03c0.49-0.85,1.43-1.36,2.48-1.36C106.16,60.28,107.52,62.01,107.52,64.66z"/>
		<rect x="108.69" y="57.15" class="st1" width="1.87" height="11.68"/>
		<path class="st1" d="M112.12,68.83L112.12,68.83V60.5h1.87v8.33H112.12z M112.12,58.94v-1.79h1.87v1.79H112.12z"/>
		<path class="st1" d="M117,63.81L117,63.81h4.22c-0.13-1.46-0.99-2.18-2.1-2.18C117.99,61.63,117.17,62.37,117,63.81 M121.07,66.32
			h1.92c-0.31,1.49-1.66,2.76-3.84,2.76c-2.54,0-4.03-1.82-4.03-4.51c0-2.46,1.47-4.32,4-4.32c1.9,0,3.28,1.1,3.74,2.84
			c0.16,0.52,0.23,1.15,0.23,1.95h-6.12c0.07,1.89,1.02,2.66,2.18,2.66C120.22,67.7,120.91,67.13,121.07,66.32z"/>
		<path class="st1" d="M125.68,64.66L125.68,64.66c0,1.77,0.8,2.92,2.07,2.92c1.21,0,2.02-1.12,2.02-2.92c0-1.82-0.8-2.92-2.02-2.92
			C126.48,61.74,125.68,62.89,125.68,64.66 M129.71,68.83v-1.15h-0.03c-0.49,0.85-1.43,1.34-2.48,1.34c-2.12,0-3.48-1.71-3.48-4.36
			c0-2.66,1.35-4.38,3.46-4.38c1.03,0,1.97,0.48,2.44,1.3h0.03v-4.43h1.87v11.68H129.71z"/>
		<path class="st1" d="M144.99,60.74H143c0-1.48-0.84-2.23-2.35-2.23c-1.26,0-2.05,0.61-2.05,1.56c0,1.07,0.8,1.39,2.67,1.85
			c2.2,0.54,4.03,1.12,4.03,3.58c0,2.17-1.74,3.58-4.36,3.58c-2.82,0-4.54-1.43-4.54-4.1h2.02c0,1.67,0.92,2.48,2.54,2.48
			c1.46,0,2.31-0.67,2.31-1.77c0-1.18-0.85-1.44-2.64-1.89c-2.21-0.56-4.05-1.1-4.05-3.54c0-1.98,1.63-3.35,4.1-3.35
			C143.52,56.91,144.99,58.23,144.99,60.74"/>
		<path class="st1" d="M153.8,63.52h-1.95c-0.08-1.08-0.79-1.79-1.8-1.79c-1.31,0-2.08,1.12-2.08,2.94c0,1.82,0.77,2.94,2.08,2.94
			c1.02,0,1.71-0.8,1.79-1.94h1.97c-0.16,2.02-1.61,3.41-3.76,3.41c-2.46,0-4.05-1.71-4.05-4.41c0-2.71,1.59-4.41,4.05-4.41
			C152.18,60.25,153.64,61.61,153.8,63.52"/>
		<path class="st1" d="M154.89,68.83L154.89,68.83V60.5h1.87v8.33H154.89z M154.89,58.94v-1.79h1.87v1.79H154.89z"/>
		<path class="st1" d="M159.77,63.81L159.77,63.81h4.22c-0.13-1.46-0.98-2.18-2.1-2.18C160.75,61.63,159.93,62.37,159.77,63.81
			 M163.84,66.32h1.92c-0.31,1.49-1.66,2.76-3.84,2.76c-2.54,0-4.04-1.82-4.04-4.51c0-2.46,1.48-4.32,4-4.32
			c1.9,0,3.28,1.1,3.74,2.84c0.16,0.52,0.23,1.15,0.23,1.95h-6.12c0.07,1.89,1.02,2.66,2.18,2.66
			C162.99,67.7,163.67,67.13,163.84,66.32z"/>
		<path class="st1" d="M174.29,63.73v5.1h-1.87v-4.94c0-1.49-0.64-2.08-1.69-2.08c-1.07,0-1.9,0.8-1.9,2.4v4.63h-1.87V60.5h1.77
			v1.08h0.03c0.53-0.75,1.4-1.28,2.5-1.28C173.14,60.3,174.29,61.45,174.29,63.73"/>
		<path class="st1" d="M183.12,63.52h-1.95c-0.08-1.08-0.79-1.79-1.8-1.79c-1.31,0-2.08,1.12-2.08,2.94c0,1.82,0.77,2.94,2.08,2.94
			c1.02,0,1.71-0.8,1.79-1.94h1.97c-0.16,2.02-1.61,3.41-3.76,3.41c-2.46,0-4.05-1.71-4.05-4.41c0-2.71,1.59-4.41,4.05-4.41
			C181.5,60.25,182.96,61.61,183.12,63.52"/>
		<path class="st1" d="M185.59,63.81L185.59,63.81h4.21c-0.13-1.46-0.98-2.18-2.1-2.18C186.57,61.63,185.75,62.37,185.59,63.81
			 M189.66,66.32h1.92c-0.31,1.49-1.66,2.76-3.84,2.76c-2.54,0-4.03-1.82-4.03-4.51c0-2.46,1.48-4.32,4-4.32
			c1.9,0,3.28,1.1,3.74,2.84c0.17,0.52,0.23,1.15,0.23,1.95h-6.12c0.06,1.89,1.02,2.66,2.18,2.66
			C188.8,67.7,189.49,67.13,189.66,66.32z"/>
		<path class="st1" d="M199.09,63.09h-1.8c0-1-0.59-1.48-1.59-1.48c-0.87,0-1.38,0.38-1.38,0.98c0,0.72,0.57,0.87,1.89,1.2
			c1.53,0.39,3.15,0.75,3.15,2.74c0,1.51-1.35,2.54-3.49,2.54c-2.23,0-3.59-1-3.61-2.99h1.9c0,1.02,0.62,1.59,1.74,1.59
			c0.95,0,1.51-0.41,1.51-1.03c0-0.85-0.66-1.02-2.1-1.38c-1.39-0.34-2.85-0.66-2.85-2.53c0-1.48,1.31-2.49,3.26-2.49
			C197.82,60.25,199.07,61.24,199.09,63.09"/>
		<polygon class="st1" points="68.19,42.3 68.19,52.27 66.24,52.27 66.24,42.3 62.4,42.3 62.4,40.59 72.03,40.59 72.03,42.3 		"/>
		<path class="st1" d="M76.02,48.32L76.02,48.32c-0.56,0.03-1.36,0.12-1.92,0.21c-1.2,0.2-1.64,0.56-1.64,1.31
			c0,0.74,0.53,1.23,1.48,1.23c0.57,0,1.13-0.18,1.51-0.56c0.44-0.46,0.57-0.9,0.57-1.79V48.32z M77.83,46.96v3.12
			c0,0.98,0.08,1.67,0.21,2.2h-1.69c-0.08-0.36-0.11-0.77-0.11-1.16H76.2c-0.61,0.89-1.54,1.35-2.81,1.35
			c-1.74,0-2.82-1.05-2.82-2.48c0-1.36,0.8-2.25,3.2-2.63c0.67-0.12,1.66-0.21,2.25-0.25v-0.33c0-1.23-0.67-1.72-1.62-1.72
			c-1.03,0-1.59,0.58-1.64,1.46h-1.84c0.08-1.58,1.23-2.82,3.48-2.82C76.6,43.69,77.83,44.78,77.83,46.96z"/>
		<path class="st1" d="M91.48,47.14v5.14h-1.87v-4.96c0-1.48-0.57-2.07-1.51-2.07c-1.1,0-1.76,0.94-1.76,2.53v4.5h-1.87v-5.15
			c0-1.18-0.53-1.87-1.49-1.87c-1.12,0-1.76,0.95-1.76,2.56v4.46h-1.87v-8.34h1.79v1h0.03c0.59-0.8,1.33-1.2,2.31-1.2
			c1.15,0,2.03,0.53,2.46,1.51c0.61-0.95,1.41-1.51,2.67-1.51C90.4,43.74,91.48,44.89,91.48,47.14"/>
		<path class="st1" d="M94.81,48.11L94.81,48.11c0,1.8,0.8,2.92,2.02,2.92c1.26,0,2.07-1.15,2.07-2.92c0-1.77-0.8-2.92-2.07-2.92
			C95.61,45.19,94.81,46.29,94.81,48.11 M100.85,48.11c0,2.66-1.35,4.37-3.46,4.37c-1.03,0-1.97-0.48-2.45-1.28h-0.03v4.12h-1.87
			V43.94h1.82v1.15h0.03c0.49-0.85,1.43-1.36,2.48-1.36C99.49,43.72,100.85,45.45,100.85,48.11z"/>
		<path class="st1" d="M103.41,47.25L103.41,47.25h4.22c-0.13-1.46-0.98-2.18-2.1-2.18C104.39,45.07,103.57,45.81,103.41,47.25
			 M107.48,49.76h1.92c-0.31,1.49-1.66,2.76-3.84,2.76c-2.54,0-4.04-1.82-4.04-4.51c0-2.46,1.48-4.32,4-4.32
			c1.9,0,3.28,1.1,3.74,2.84c0.17,0.52,0.23,1.15,0.23,1.95h-6.12c0.07,1.89,1.02,2.66,2.18,2.66
			C106.62,51.14,107.31,50.57,107.48,49.76z"/>
		<path class="st1" d="M115.43,43.91v1.66c-0.23-0.05-0.44-0.07-0.66-0.07c-1.49,0-2.31,0.95-2.31,2.69v4.09h-1.87v-8.34h1.74v1.23
			h0.03c0.56-0.9,1.35-1.35,2.38-1.35C114.96,43.82,115.22,43.86,115.43,43.91"/>
		<path class="st1" d="M117.46,47.25L117.46,47.25h4.22c-0.13-1.46-0.98-2.18-2.1-2.18C118.45,45.07,117.62,45.81,117.46,47.25
			 M121.53,49.76h1.92c-0.31,1.49-1.66,2.76-3.84,2.76c-2.54,0-4.04-1.82-4.04-4.51c0-2.46,1.48-4.32,4-4.32
			c1.9,0,3.28,1.1,3.74,2.84c0.17,0.52,0.23,1.15,0.23,1.95h-6.12c0.07,1.89,1.02,2.66,2.18,2.66
			C120.68,51.14,121.37,50.57,121.53,49.76z"/>
		<path class="st1" d="M137.61,47.86c0,3.04-1.59,4.66-4.48,4.66c-2.89,0-4.5-1.63-4.5-4.66v-7.27h1.97v7.2
			c0,1.97,0.92,2.97,2.53,2.97c1.61,0,2.53-1,2.53-2.97v-7.2h1.95V47.86z"/>
		<path class="st1" d="M146.63,47.17v5.1h-1.87v-4.94c0-1.49-0.64-2.08-1.69-2.08c-1.07,0-1.9,0.8-1.9,2.4v4.63h-1.87v-8.34h1.77
			v1.08h0.03c0.52-0.75,1.39-1.28,2.49-1.28C145.49,43.74,146.63,44.89,146.63,47.17"/>
		<path class="st1" d="M148.17,52.27L148.17,52.27v-8.34h1.87v8.34H148.17z M148.17,42.38v-1.79h1.87v1.79H148.17z"/>
		<path class="st1" d="M153.5,52.27l-2.9-8.34h1.95l1.08,3.4c0.39,1.21,0.74,2.41,1.07,3.64h0.03c0.33-1.23,0.67-2.43,1.07-3.64
			l1.08-3.4h1.95l-2.9,8.34H153.5z"/>
		<path class="st1" d="M160.5,47.25L160.5,47.25h4.22c-0.13-1.46-0.99-2.18-2.1-2.18C161.49,45.07,160.66,45.81,160.5,47.25
			 M164.57,49.76h1.92c-0.31,1.49-1.66,2.76-3.84,2.76c-2.54,0-4.04-1.82-4.04-4.51c0-2.46,1.48-4.32,4-4.32
			c1.9,0,3.28,1.1,3.74,2.84c0.16,0.52,0.23,1.15,0.23,1.95h-6.12c0.07,1.89,1.02,2.66,2.18,2.66
			C163.72,51.14,164.41,50.57,164.57,49.76z"/>
		<path class="st1" d="M172.53,43.91v1.66c-0.23-0.05-0.44-0.07-0.66-0.07c-1.49,0-2.31,0.95-2.31,2.69v4.09h-1.87v-8.34h1.74v1.23
			h0.03c0.56-0.9,1.35-1.35,2.38-1.35C172.05,43.82,172.31,43.86,172.53,43.91"/>
		<path class="st1" d="M179.65,46.53h-1.8c0-1-0.59-1.48-1.59-1.48c-0.87,0-1.38,0.38-1.38,0.99c0,0.72,0.57,0.87,1.89,1.2
			c1.53,0.39,3.15,0.75,3.15,2.74c0,1.51-1.35,2.54-3.5,2.54c-2.23,0-3.59-1-3.61-2.99h1.9c0,1.02,0.62,1.59,1.74,1.59
			c0.95,0,1.51-0.41,1.51-1.03c0-0.85-0.65-1.02-2.1-1.38c-1.4-0.34-2.85-0.66-2.85-2.53c0-1.48,1.31-2.49,3.26-2.49
			C178.38,43.69,179.63,44.68,179.65,46.53"/>
		<path class="st1" d="M181.03,52.27L181.03,52.27v-8.34h1.87v8.34H181.03z M181.03,42.38v-1.79h1.87v1.79H181.03z"/>
		<path class="st1" d="M188.54,50.76v1.46c-0.28,0.08-0.71,0.15-1.05,0.15c-1.75,0-2.53-0.74-2.53-2.56v-4.45h-1.39v-1.43h1.39
			v-2.08h1.87v2.08h1.62v1.43h-1.62v4.17c0,0.94,0.31,1.31,1.13,1.31C188.17,50.85,188.41,50.81,188.54,50.76"/>
		<path class="st1" d="M193.71,52.63c-0.79,2.12-1.71,2.76-3.64,2.76c-0.36,0-0.69-0.05-0.93-0.12v-1.53
			c0.21,0.07,0.49,0.12,0.79,0.12c1.02,0,1.46-0.38,1.85-1.53l-3.05-8.4h2l2.08,6.2h0.03l2.15-6.2h1.94L193.71,52.63z"/>
	</g>
</g>
</svg>
