<?xml version="1.0" encoding="UTF-8"?><svg xmlns="http://www.w3.org/2000/svg" viewBox="0 0 226.77 151.33"><defs><style>.d{fill:#fff;}.e{fill:#8dc63f;}</style></defs><g id="a"/><g id="b"><g id="c"><g><path class="d" d="M6.99,140.21c.28-.22,.6-.46,.96-.75,.36-.29,.75-.59,1.16-.91,.41-.32,.79-.62,1.15-.91,.36-.29,.68-.54,.95-.75,.27-.22,.46-.36,.55-.44,.93-.72,1.77-1.4,2.49-2.03,.73-.63,1.36-1.23,1.91-1.79,.54-.56,1-1.1,1.38-1.62,.37-.52,.68-1.03,.91-1.54,.23-.51,.4-1.02,.51-1.53,.1-.51,.16-1.05,.16-1.6,0-1.01-.18-1.96-.52-2.84-.34-.88-.86-1.65-1.55-2.31-.69-.66-1.54-1.17-2.56-1.55-1.02-.38-2.21-.56-3.56-.56-.94,0-1.81,.07-2.62,.21-.81,.14-1.6,.37-2.37,.67-.77,.31-1.54,.7-2.31,1.17-.77,.48-1.59,1.05-2.45,1.73l1.76,2.64c.82-.61,1.55-1.1,2.2-1.48,.65-.38,1.26-.67,1.82-.88,.56-.21,1.1-.35,1.62-.43,.51-.08,1.04-.11,1.58-.11,.73,0,1.4,.1,2.01,.3,.6,.21,1.11,.49,1.54,.86,.42,.38,.75,.83,.98,1.35,.23,.52,.35,1.1,.35,1.73,0,.38-.04,.76-.12,1.12-.08,.37-.22,.74-.41,1.13-.2,.39-.46,.79-.78,1.21-.33,.42-.74,.87-1.23,1.36-.49,.49-1.07,1.02-1.75,1.59-.68,.57-1.46,1.2-2.34,1.88-.33,.26-.7,.55-1.11,.86-.41,.31-.83,.64-1.28,.97-.44,.34-.89,.68-1.35,1.02-.46,.34-.9,.68-1.33,1-1,.75-2.03,1.52-3.09,2.3l.37,2.44H19.95l.37-3.11H6.42c.1-.08,.29-.22,.57-.44Z"/><path class="d" d="M36.75,119.12c-1.28,0-2.48,.15-3.58,.44-1.11,.29-2.11,.7-3.02,1.24-.91,.54-1.72,1.18-2.42,1.94-.71,.76-1.3,1.61-1.78,2.55-.48,.94-.85,1.95-1.1,3.04-.25,1.09-.38,2.24-.38,3.44,0,1.91,.22,3.63,.66,5.15,.44,1.51,1.12,2.8,2.03,3.85,.92,1.05,2.08,1.85,3.5,2.4,1.42,.55,3.11,.83,5.06,.83,1.32,0,2.53-.14,3.65-.43,1.11-.29,2.12-.71,3.04-1.24,.91-.54,1.71-1.19,2.41-1.96,.69-.77,1.28-1.63,1.76-2.58,.48-.95,.84-1.99,1.07-3.12,.24-1.13,.36-2.31,.36-3.56,0-3.94-.93-6.92-2.78-8.95-1.86-2.03-4.68-3.04-8.47-3.04Zm6.4,16.47c-.37,1.2-.88,2.2-1.54,2.99-.66,.78-1.45,1.37-2.37,1.75-.93,.39-1.95,.58-3.06,.58-1.33,0-2.47-.2-3.42-.61-.94-.4-1.72-1-2.32-1.8-.6-.79-1.04-1.78-1.32-2.96-.28-1.18-.42-2.54-.42-4.08,0-1.38,.17-2.63,.51-3.76,.34-1.13,.84-2.1,1.5-2.91,.66-.81,1.48-1.44,2.45-1.89,.96-.45,2.07-.67,3.31-.67,2.39,0,4.19,.75,5.4,2.25,1.21,1.5,1.82,3.78,1.82,6.83,0,1.65-.18,3.08-.55,4.28Z"/><polygon class="d" points="51.57 123.07 58.25 123.28 58.25 143.76 62.4 143.76 62.4 119.81 51.67 120.21 51.57 123.07"/><path class="d" d="M86.3,119.76l-3.83-.32c-2.44,3.16-4.89,6.32-7.34,9.46-2.45,3.14-4.9,6.28-7.35,9.42l.58,2.9h13.93v10.11l4-.2v-9.91h4.25l.2-3.05h-4.46v-18.41Zm-4,18.41h-10.62c1.8-2.29,3.57-4.58,5.33-6.85,1.75-2.27,3.52-4.55,5.29-6.84v13.69Z"/><polygon class="d" points="94.07 132.3 118.96 132.3 119.16 129.46 94.38 129.46 94.07 132.3"/><path class="d" d="M129.43,140.21c.28-.22,.6-.46,.96-.75,.36-.29,.75-.59,1.16-.91,.41-.32,.79-.62,1.15-.91,.36-.29,.67-.54,.95-.75,.27-.22,.46-.36,.55-.44,.94-.72,1.77-1.4,2.49-2.03,.73-.63,1.36-1.23,1.91-1.79,.54-.56,1-1.1,1.38-1.62,.37-.52,.68-1.03,.91-1.54,.23-.51,.4-1.02,.51-1.53,.11-.51,.16-1.05,.16-1.6,0-1.01-.17-1.96-.52-2.84-.35-.88-.86-1.65-1.55-2.31-.69-.66-1.54-1.17-2.56-1.55-1.02-.38-2.21-.56-3.56-.56-.93,0-1.81,.07-2.62,.21-.81,.14-1.6,.37-2.37,.67-.77,.31-1.54,.7-2.31,1.17-.77,.48-1.59,1.05-2.45,1.73l1.76,2.64c.82-.61,1.55-1.1,2.2-1.48,.65-.38,1.25-.67,1.82-.88,.56-.21,1.1-.35,1.61-.43,.51-.08,1.04-.11,1.58-.11,.74,0,1.4,.1,2.01,.3,.6,.21,1.12,.49,1.54,.86,.42,.38,.75,.83,.98,1.35,.23,.52,.35,1.1,.35,1.73,0,.38-.04,.76-.12,1.12-.08,.37-.22,.74-.41,1.13-.19,.39-.46,.79-.78,1.21-.33,.42-.74,.87-1.23,1.36-.49,.49-1.07,1.02-1.75,1.59-.68,.57-1.46,1.2-2.34,1.88-.33,.26-.7,.55-1.11,.86-.41,.31-.83,.64-1.28,.97-.45,.34-.89,.68-1.35,1.02-.45,.34-.9,.68-1.33,1-1.01,.75-2.04,1.52-3.09,2.3l.37,2.44h19.34l.37-3.11h-13.9c.1-.08,.29-.22,.57-.44Z"/><path class="d" d="M159.19,119.12c-1.28,0-2.48,.15-3.58,.44-1.11,.29-2.11,.7-3.02,1.24-.91,.54-1.71,1.18-2.42,1.94-.71,.76-1.3,1.61-1.78,2.55-.48,.94-.85,1.95-1.1,3.04-.25,1.09-.38,2.24-.38,3.44,0,1.91,.22,3.63,.66,5.15,.44,1.51,1.12,2.8,2.03,3.85,.92,1.05,2.08,1.85,3.5,2.4,1.42,.55,3.11,.83,5.06,.83,1.32,0,2.53-.14,3.65-.43,1.11-.29,2.13-.71,3.04-1.24,.91-.54,1.72-1.19,2.41-1.96,.7-.77,1.28-1.63,1.76-2.58,.47-.95,.83-1.99,1.08-3.12,.24-1.13,.36-2.31,.36-3.56,0-3.94-.93-6.92-2.79-8.95-1.86-2.03-4.68-3.04-8.47-3.04Zm6.4,16.47c-.37,1.2-.88,2.2-1.54,2.99-.66,.78-1.45,1.37-2.37,1.75-.92,.39-1.94,.58-3.06,.58-1.33,0-2.47-.2-3.42-.61-.95-.4-1.72-1-2.32-1.8-.6-.79-1.04-1.78-1.32-2.96-.28-1.18-.42-2.54-.42-4.08,0-1.38,.17-2.63,.51-3.76,.34-1.13,.84-2.1,1.51-2.91,.66-.81,1.48-1.44,2.44-1.89,.97-.45,2.07-.67,3.31-.67,2.39,0,4.19,.75,5.4,2.25,1.21,1.5,1.82,3.78,1.82,6.83,0,1.65-.18,3.08-.55,4.28Z"/><path class="d" d="M181.16,140.21c.28-.22,.6-.46,.96-.75,.36-.29,.75-.59,1.16-.91,.41-.32,.79-.62,1.15-.91,.36-.29,.67-.54,.95-.75,.28-.22,.46-.36,.55-.44,.94-.72,1.77-1.4,2.49-2.03,.73-.63,1.36-1.23,1.91-1.79,.54-.56,1-1.1,1.38-1.62,.38-.52,.68-1.03,.91-1.54,.23-.51,.4-1.02,.51-1.53,.11-.51,.16-1.05,.16-1.6,0-1.01-.17-1.96-.52-2.84-.35-.88-.86-1.65-1.55-2.31-.69-.66-1.55-1.17-2.56-1.55-1.02-.38-2.21-.56-3.56-.56-.94,0-1.81,.07-2.62,.21-.81,.14-1.6,.37-2.37,.67-.77,.31-1.54,.7-2.31,1.17-.77,.48-1.59,1.05-2.45,1.73l1.76,2.64c.82-.61,1.55-1.1,2.2-1.48,.65-.38,1.25-.67,1.81-.88,.56-.21,1.1-.35,1.62-.43,.52-.08,1.04-.11,1.58-.11,.73,0,1.4,.1,2.01,.3,.6,.21,1.12,.49,1.54,.86,.42,.38,.75,.83,.98,1.35,.23,.52,.35,1.1,.35,1.73,0,.38-.04,.76-.12,1.12-.08,.37-.22,.74-.41,1.13-.19,.39-.45,.79-.79,1.21-.33,.42-.74,.87-1.23,1.36-.49,.49-1.07,1.02-1.75,1.59-.67,.57-1.45,1.2-2.34,1.88-.33,.26-.7,.55-1.1,.86-.41,.31-.84,.64-1.28,.97-.44,.34-.89,.68-1.35,1.02-.45,.34-.9,.68-1.33,1-1.01,.75-2.04,1.52-3.09,2.3l.37,2.44h19.34l.37-3.11h-13.9c.1-.08,.29-.22,.57-.44Z"/><path class="d" d="M210.92,119.12c-1.28,0-2.48,.15-3.58,.44-1.11,.29-2.11,.7-3.02,1.24-.91,.54-1.72,1.18-2.42,1.94-.71,.76-1.3,1.61-1.79,2.55-.48,.94-.85,1.95-1.1,3.04-.25,1.09-.38,2.24-.38,3.44,0,1.91,.22,3.63,.66,5.15,.44,1.51,1.12,2.8,2.03,3.85,.92,1.05,2.08,1.85,3.5,2.4,1.42,.55,3.1,.83,5.06,.83,1.32,0,2.53-.14,3.65-.43,1.11-.29,2.13-.71,3.04-1.24,.91-.54,1.71-1.19,2.41-1.96,.7-.77,1.29-1.63,1.76-2.58,.48-.95,.84-1.99,1.08-3.12,.24-1.13,.36-2.31,.36-3.56,0-3.94-.93-6.92-2.78-8.95-1.86-2.03-4.68-3.04-8.47-3.04Zm6.4,16.47c-.37,1.2-.88,2.2-1.54,2.99-.66,.78-1.45,1.37-2.37,1.75-.92,.39-1.94,.58-3.06,.58-1.33,0-2.47-.2-3.42-.61-.95-.4-1.72-1-2.32-1.8-.6-.79-1.04-1.78-1.32-2.96-.28-1.18-.42-2.54-.42-4.08,0-1.38,.17-2.63,.51-3.76,.34-1.13,.84-2.1,1.51-2.91,.66-.81,1.48-1.44,2.44-1.89,.96-.45,2.07-.67,3.31-.67,2.39,0,4.19,.75,5.4,2.25,1.21,1.5,1.82,3.78,1.82,6.83,0,1.65-.19,3.08-.55,4.28Z"/><path class="d" d="M187.88,96.03c0,7.74,5.13,11,11.1,11s10.91-2.33,14.83-6.72c0,4.29,1.59,6.34,5.78,6.34,2.8,0,5.31-.56,7.18-1.21l-.28-3.45c-1.68,.37-3.82,.65-5.69,.65-2.05,0-2.33-.75-2.33-2.89l.09-25.93c0-7.27-3.17-11.19-10.54-11.19-7.74,0-12.78,2.14-18,5.97l2.33,3.26c4.19-3.26,9.88-5.22,14.64-5.22s7.09,2.24,7,7.65l-.1,10.07c-22.94,1.49-26.02,5.78-26.02,11.66Zm25.83,.09c-2.71,3.54-8.39,7.18-13.34,7.18-5.22,0-7.83-3.17-7.83-7.83s5.97-6.34,21.26-7.37l-.09,8.02Z"/><path class="d" d="M160.28,97.06c0,6.81,2.89,9.89,9.42,9.89,4.19,0,8.11-1.02,11.65-3.17l-1.3-3.63c-3.08,1.68-6.34,2.7-9.42,2.7-4.1,0-5.69-1.68-5.69-6.25v-29h14.92l.28-4.1h-15.2v-14.55l-3.82,.37-.84,14.27-5.78,.38-.37,3.26,6.16,.19v29.66Z"/><path class="d" d="M142.47,106.66c2.8,0,5.22-.37,7.09-1.02l-.28-3.45c-1.77,.37-3.73,.56-5.69,.56s-2.24-.75-2.24-2.8l-.29-59.5-4.66,.37,.29,59.22c0,4.66,1.59,6.62,5.78,6.62Z"/><path class="d" d="M98,43.71h-4.57v37.3c0,14.08-4.94,21.73-19.21,21.73s-18.47-6.99-18.47-20.7V43.71h-4.76v39.17c0,15.48,5.6,23.97,23.04,23.97s23.97-10.45,23.97-25.55V43.71Z"/><rect class="d" x="113.66" y="70.01" width="7.37" height="6.25"/><polygon class="d" points="37.48 102.37 6.89 102.37 6.89 75.7 33.37 75.7 33.37 71.69 6.89 71.69 6.89 47.63 37.48 47.63 37.75 43.71 2.04 43.71 2.04 106.29 37.75 106.29 37.48 102.37"/><rect class="d" x="113.66" y="94.08" width="7.37" height="6.25"/></g><path class="e" d="M206.31,23.16c0,1.26,.71,2.14,1.89,2.14s2.18-.54,2.77-1.09v-3.06c-4.32,.38-4.66,.84-4.66,2.01m-.84,6.63c-3.23,0-5.87-2.43-5.87-6.42,0-2.98,1.64-4.99,11.41-5.75v-2.01c0-1.34-.38-1.72-1.43-1.72-2.14,0-4.57,.88-6.63,2.26l-2.64-4.2c3.15-2.27,6.5-3.4,10.99-3.4,5.12,0,6.84,2.52,6.84,6.5v8.56c0,.5,.42,.63,2.23,.97l-1.13,5.08c-.76,.04-1.43,.04-2.02,.04-3.86,0-5.25-.8-5.96-2.35-1.63,1.81-3.31,2.43-5.79,2.43m-21.65-6.63c0,1.26,.71,2.14,1.89,2.14s2.18-.54,2.77-1.09v-3.06c-4.32,.38-4.66,.84-4.66,2.01m-.84,6.63c-3.23,0-5.87-2.43-5.87-6.42,0-2.98,1.64-4.99,11.41-5.75v-2.01c0-1.34-.38-1.72-1.43-1.72-2.14,0-4.57,.88-6.63,2.26l-2.64-4.2c3.15-2.27,6.5-3.4,10.99-3.4,5.12,0,6.84,2.52,6.84,6.5v8.56c0,.5,.42,.63,2.22,.97l-1.13,5.08c-.75,.04-1.43,.04-2.01,.04-3.86,0-5.24-.8-5.96-2.35-1.64,1.81-3.31,2.43-5.79,2.43m-16.23-13.72c0-1.09-.46-1.43-1.34-1.43s-2.14,.67-3.32,1.68v13.13h-6.88v-13.38c0-1.09-.46-1.43-1.34-1.43s-2.18,.67-3.36,1.68v13.13h-6.88V9.19l6.13-.34c.25,.63,.46,1.81,.59,2.77,2.1-1.76,4.4-2.98,6.5-2.98,3.23,0,4.45,1.34,4.99,3.1,1.64-1.51,4.24-3.1,6.38-3.1,4.15,0,5.46,1.89,5.46,5.62v15.19h-6.92v-13.38ZM132.1,.04h6.8V6h-6.8V.04Zm-.08,29.41V9.35l7.05-.34V29.45h-7.05Zm-13.88-15.73c-1.97,0-3.1,1.68-3.1,5.28,0,4.41,.71,5.87,2.89,5.87,2.35,0,3.19-1.72,3.19-5.83s-.88-5.33-2.98-5.33m-.59,16.07c-6.84,0-9.9-3.36-9.9-10.24,0-6.5,4.07-10.82,10.82-10.82s10.03,3.23,10.03,10.11c0,6.29-3.82,10.95-10.95,10.95m-21.65-10.15c.25,.84,.38,1.64,.38,2.18,0-.55,.12-1.38,.38-2.18l3.44-10.36h6.42l-7.59,20.18h-6.46l-7.18-20.18h7.43l3.19,10.36Zm-31.42-10.28l7.17-.29v13.34c0,1.09,.33,1.47,1.22,1.47s1.8-.5,3.1-1.55V9.35l7.13-.29V29.29l-6.29,.38c-.25-.67-.42-1.8-.59-2.77-1.93,1.72-4.41,2.94-6.42,2.94-3.86,0-5.33-1.85-5.33-5.87V9.35Zm-13.72,5c-.97,0-1.8,.42-2.73,1.05v9.15c.54,.16,1.47,.29,2.18,.29,2.35,0,3.52-1.51,3.52-5.58,0-3.36-1.17-4.91-2.98-4.91m-.25,15.15c-.5,0-2.05-.04-2.48-.09v4.77l-7.17,.38V9.19l6.29-.34c.25,.71,.38,1.39,.55,2.35,1.81-1.72,3.73-2.56,6.04-2.56,4.15,0,7.22,2.77,7.22,10.03,0,5.79-2.6,10.83-10.45,10.83M29.32,.04h6.8V6h-6.8V.04Zm-.08,29.41V9.35l7.05-.34V29.45h-7.05ZM20.26,0h6.96l-10.7,29.45h-7.05L0,0H8.39l5.12,18.12c.21,.8,.29,1.59,.29,2.14,0-.55,.17-1.43,.42-2.14L20.26,0Z"/></g></g></svg>