<?xml version="1.0" encoding="UTF-8"?><svg xmlns="http://www.w3.org/2000/svg" xmlns:xlink="http://www.w3.org/1999/xlink" viewBox="0 0 694.95 382.57"><defs><style>.o{fill:url(#h);}.p{fill:url(#m);}.q{mask:url(#j);}.r{mask:url(#e);}.s,.t{fill:none;}.u,.v{fill:#4e008e;}.w{letter-spacing:.18em;}.x{filter:url(#g);}.y{filter:url(#l);}.t{stroke:#4e008e;stroke-width:24.04px;}.v{font-family:Montserrat-Bold, Montserrat;font-size:137.73px;}.a`{letter-spacing:.16em;}.aa{clip-path:url(#d);}.ab{clip-path:url(#n);}.ac{clip-path:url(#i);}</style><clipPath id="d"><rect class="s" width="694.95" height="382.57"/></clipPath><filter id="g" x="-122.48" y="0" width="938.04" height="382.57" color-interpolation-filters="sRGB" filterUnits="userSpaceOnUse"><feFlood flood-color="#fff" result="bg"/><feBlend in="SourceGraphic" in2="bg"/></filter><linearGradient id="h" x1="128.85" y1="308.12" x2="129.85" y2="308.12" gradientTransform="translate(-59906.23 143952.81) scale(466.57 -466.57)" gradientUnits="userSpaceOnUse"><stop offset="0" stop-color="#fff"/><stop offset="1" stop-color="#000"/></linearGradient><mask id="e" x="-122.48" y="0" width="938.04" height="382.57" maskUnits="userSpaceOnUse"><g class="x"><rect class="o" x="0" y="0" width="694.95" height="382.57"/></g></mask><clipPath id="i"><rect class="s" x="-122.48" y="41.12" width="938.04" height="186.84"/></clipPath><filter id="l" x="-3.34" y="-7" width="707.29" height="395.64" color-interpolation-filters="sRGB" filterUnits="userSpaceOnUse"><feFlood flood-color="#fff" result="bg"/><feBlend in="SourceGraphic" in2="bg"/></filter><linearGradient id="m" x1="130.17" y1="309.04" x2="131.17" y2="309.04" gradientTransform="translate(16722.24 -38101.45) rotate(-180) scale(123.91 -123.91)" xlink:href="#h"/><mask id="j" x="-3.34" y="-7" width="707.29" height="395.64" maskUnits="userSpaceOnUse"><g class="y"><rect class="p" x="-1.66" y="-3.02" width="698.26" height="388.62" transform="translate(-1.66 3.04) rotate(-.5)"/></g></mask><clipPath id="n"><rect class="s" x="422.96" y="-7" width="280.99" height="390.57"/></clipPath></defs><g id="a"/><g id="b"><g id="c"><g class="aa"><g class="r"><g class="ac"><text class="v" transform="translate(0 190.32)"><tspan class="a`" x="0" y="0">V</tspan><tspan class="w" x="125.47" y="0">IRM</tspan><tspan x="477.79" y="0">A</tspan></text></g></g><path class="u" d="M508.99,297.25c-.71,.56-1.6,.84-2.67,.84-.91,0-1.61-.26-2.09-.78-.48-.52-.72-1.27-.72-2.26v-9.67h5.44v-3.81h-5.44v-4.64h-4.76v4.64h-3.35v3.81h3.35v9.78c0,2.23,.61,3.93,1.83,5.1,1.22,1.17,2.94,1.75,5.18,1.75,.89,0,1.73-.11,2.53-.34,.8-.23,1.48-.57,2.04-1.03l-1.33-3.39Zm-25.73-12.26c1.55,0,2.84,.46,3.88,1.37,1.04,.91,1.66,2.11,1.86,3.58h-11.54c.23-1.5,.87-2.7,1.92-3.6s2.34-1.35,3.86-1.35m10.28,6.7c0-2.08-.44-3.92-1.31-5.5-.88-1.59-2.09-2.82-3.65-3.69-1.56-.88-3.33-1.31-5.31-1.31s-3.81,.44-5.41,1.33c-1.6,.89-2.85,2.13-3.75,3.71-.9,1.59-1.35,3.37-1.35,5.35s.46,3.8,1.39,5.39c.93,1.59,2.24,2.82,3.94,3.71,1.7,.89,3.67,1.33,5.9,1.33,1.75,0,3.32-.28,4.72-.84,1.4-.56,2.55-1.38,3.46-2.47l-2.55-2.93c-1.45,1.47-3.29,2.21-5.52,2.21-1.75,0-3.22-.44-4.4-1.31-1.18-.88-1.91-2.06-2.19-3.56h15.95c.05-.61,.08-1.08,.08-1.41m-36.09,6.24c-1.14,0-2.17-.26-3.08-.78-.91-.52-1.64-1.26-2.17-2.23-.53-.96-.8-2.08-.8-3.35s.27-2.39,.8-3.35c.53-.96,1.26-1.71,2.17-2.23,.91-.52,1.94-.78,3.08-.78s2.17,.26,3.08,.78c.91,.52,1.64,1.26,2.17,2.23,.53,.96,.8,2.08,.8,3.35s-.27,2.39-.8,3.35c-.53,.96-1.26,1.71-2.17,2.23-.91,.52-1.94,.78-3.08,.78m5.98-24.44v10.43c-.79-.91-1.74-1.6-2.85-2.06-1.12-.46-2.35-.68-3.69-.68-1.95,0-3.71,.43-5.27,1.29-1.56,.86-2.79,2.08-3.67,3.65-.89,1.57-1.33,3.39-1.33,5.44s.44,3.88,1.33,5.46c.89,1.59,2.11,2.81,3.67,3.67,1.56,.86,3.32,1.29,5.27,1.29,1.4,0,2.67-.24,3.83-.72,1.15-.48,2.13-1.21,2.91-2.17v2.63h4.57v-28.25h-4.76Zm-26.15,7.92v10.28c0,1.98-.5,3.5-1.5,4.55-1,1.05-2.36,1.58-4.06,1.58-1.52,0-2.7-.45-3.52-1.35-.82-.9-1.24-2.27-1.24-4.09v-10.96h-4.76v11.61c0,2.97,.78,5.21,2.34,6.72s3.7,2.26,6.42,2.26c1.32,0,2.55-.25,3.69-.74,1.14-.49,2.09-1.2,2.86-2.11v2.59h4.53v-20.33h-4.76Zm-25.92,0v10.28c0,1.98-.5,3.5-1.5,4.55-1,1.05-2.35,1.58-4.05,1.58-1.52,0-2.7-.45-3.52-1.35-.82-.9-1.24-2.27-1.24-4.09v-10.96h-4.76v11.61c0,2.97,.78,5.21,2.34,6.72,1.56,1.51,3.7,2.26,6.41,2.26,1.32,0,2.55-.25,3.69-.74,1.14-.49,2.09-1.2,2.86-2.11v2.59h4.53v-20.33h-4.76Zm-28.25,20.6c2.84,0,5.09-.57,6.74-1.71,1.65-1.14,2.48-2.66,2.48-4.57,0-1.45-.38-2.56-1.12-3.35-.75-.79-1.64-1.34-2.68-1.67-1.04-.33-2.37-.62-4-.88-1.62-.28-2.82-.58-3.6-.89-.77-.32-1.16-.86-1.16-1.62,0-.68,.36-1.24,1.09-1.66,.72-.42,1.78-.63,3.18-.63,2.16,0,4.1,.51,5.82,1.52l1.83-3.62c-.89-.53-2.03-.96-3.43-1.28-1.4-.32-2.79-.47-4.19-.47-2.74,0-4.92,.58-6.53,1.73-1.61,1.15-2.42,2.7-2.42,4.62,0,1.47,.39,2.62,1.16,3.45,.77,.83,1.69,1.4,2.74,1.73,1.05,.33,2.42,.62,4.09,.88,1.6,.25,2.76,.52,3.48,.8,.72,.28,1.08,.77,1.08,1.48,0,1.5-1.42,2.25-4.26,2.25-1.24,0-2.51-.18-3.79-.55-1.28-.37-2.38-.86-3.29-1.47l-1.83,3.62c.94,.66,2.2,1.21,3.77,1.64,1.57,.43,3.18,.65,4.83,.65m-14.89-23.95c.89,0,1.62-.29,2.19-.86,.57-.57,.86-1.28,.86-2.11,0-.79-.29-1.44-.88-1.96-.58-.52-1.31-.78-2.17-.78s-1.59,.27-2.17,.82c-.58,.55-.88,1.22-.88,2.04s.29,1.49,.88,2.04c.58,.55,1.31,.82,2.17,.82m-2.4,23.68h4.76v-20.33h-4.76v20.33Zm-11,0h4.76v-28.25h-4.76v28.25Zm-11,0h4.76v-28.25h-4.76v28.25Zm-15.42-3.81c-1.75,0-3.19-.58-4.32-1.75-1.13-1.17-1.69-2.7-1.69-4.61s.56-3.44,1.69-4.61c1.13-1.17,2.57-1.75,4.32-1.75s3.2,.58,4.34,1.75c1.14,1.17,1.71,2.7,1.71,4.61s-.57,3.44-1.71,4.61c-1.14,1.17-2.59,1.75-4.34,1.75m0,4.07c2.08,0,3.95-.44,5.6-1.33,1.65-.89,2.94-2.12,3.86-3.71,.93-1.58,1.39-3.38,1.39-5.39s-.46-3.79-1.39-5.37c-.93-1.57-2.21-2.8-3.86-3.69-1.65-.89-3.51-1.33-5.6-1.33s-3.91,.44-5.56,1.33c-1.65,.89-2.94,2.12-3.86,3.69-.93,1.57-1.39,3.36-1.39,5.37s.46,3.8,1.39,5.39c.93,1.59,2.21,2.82,3.86,3.71,1.65,.89,3.5,1.33,5.56,1.33m-26.12-4.07c-1.14,0-2.17-.26-3.08-.78-.91-.52-1.64-1.26-2.17-2.23-.53-.96-.8-2.08-.8-3.35s.27-2.39,.8-3.35c.53-.96,1.26-1.71,2.17-2.23,.91-.52,1.94-.78,3.08-.78s2.17,.26,3.08,.78c.91,.52,1.64,1.26,2.17,2.23,.53,.96,.8,2.08,.8,3.35s-.27,2.39-.8,3.35c-.53,.96-1.26,1.71-2.17,2.23-.91,.52-1.94,.78-3.08,.78m5.98-24.44v10.43c-.79-.91-1.74-1.6-2.86-2.06s-2.35-.68-3.69-.68c-1.95,0-3.71,.43-5.27,1.29-1.56,.86-2.79,2.08-3.67,3.65-.89,1.57-1.33,3.39-1.33,5.44s.44,3.88,1.33,5.46c.89,1.59,2.11,2.81,3.67,3.67,1.56,.86,3.32,1.29,5.27,1.29,1.4,0,2.67-.24,3.83-.72,1.15-.48,2.13-1.21,2.91-2.17v2.63h4.57v-28.25h-4.76Zm-29.88,7.69c-1.42,0-2.71,.22-3.86,.67s-2.13,1.08-2.91,1.92v-10.28h-4.76v28.25h4.76v-10.28c0-1.98,.51-3.5,1.52-4.55,1.01-1.05,2.4-1.58,4.15-1.58,1.55,0,2.74,.45,3.58,1.35,.84,.9,1.26,2.24,1.26,4.02v11.04h4.76v-11.65c0-2.94-.77-5.17-2.32-6.66-1.55-1.5-3.6-2.25-6.17-2.25m-27.52,17.36c-1.22,0-2.17-.25-2.86-.76-.69-.51-1.03-1.19-1.03-2.06,0-1.8,1.37-2.7,4.11-2.7h4.91v2.36c-.38,1.01-1.03,1.79-1.96,2.34-.93,.55-1.99,.82-3.18,.82m.65-17.36c-1.67,0-3.26,.22-4.76,.65-1.5,.43-2.78,1.05-3.85,1.86l1.87,3.47c.76-.64,1.69-1.13,2.8-1.49,1.1-.36,2.23-.53,3.37-.53,1.67,0,2.94,.38,3.79,1.14,.85,.76,1.27,1.85,1.27,3.27v.3h-5.25c-2.92,0-5.06,.55-6.42,1.66-1.36,1.1-2.04,2.57-2.04,4.4,0,1.17,.31,2.21,.93,3.14,.62,.93,1.5,1.65,2.65,2.17,1.14,.52,2.47,.78,4,.78s2.82-.24,3.9-.71c1.08-.47,1.91-1.15,2.49-2.04v2.47h4.49v-11.92c0-2.89-.79-5.06-2.38-6.49-1.59-1.43-3.88-2.15-6.87-2.15m-22.19,0c-1.6,0-3.06,.3-4.38,.89-1.32,.6-2.4,1.43-3.24,2.49-.69-1.12-1.62-1.96-2.8-2.53-1.18-.57-2.53-.86-4.05-.86-1.4,0-2.67,.24-3.81,.72-1.14,.48-2.09,1.18-2.85,2.09v-2.59h-4.53v20.33h4.76v-10.32c0-1.98,.48-3.49,1.43-4.53,.95-1.04,2.24-1.56,3.86-1.56,1.47,0,2.6,.45,3.39,1.35,.79,.9,1.18,2.24,1.18,4.02v11.04h4.76v-10.32c0-1.95,.48-3.46,1.45-4.51,.96-1.05,2.25-1.58,3.85-1.58,1.47,0,2.6,.45,3.39,1.35,.79,.9,1.18,2.24,1.18,4.02v11.04h4.76v-11.65c0-2.97-.75-5.2-2.25-6.68-1.5-1.49-3.53-2.23-6.09-2.23m-41.42,16.06c-.71,.56-1.6,.84-2.66,.84-.91,0-1.61-.26-2.09-.78-.48-.52-.72-1.27-.72-2.26v-9.67h5.44v-3.81h-5.44v-4.64h-4.76v4.64h-3.35v3.81h3.35v9.78c0,2.23,.61,3.93,1.83,5.1,1.22,1.17,2.94,1.75,5.18,1.75,.89,0,1.73-.11,2.53-.34,.8-.23,1.48-.57,2.04-1.03l-1.33-3.39Zm-25.73-12.26c1.55,0,2.84,.46,3.88,1.37,1.04,.91,1.66,2.11,1.87,3.58h-11.54c.23-1.5,.87-2.7,1.92-3.6,1.05-.9,2.34-1.35,3.86-1.35m10.28,6.7c0-2.08-.44-3.92-1.31-5.5-.88-1.59-2.09-2.82-3.65-3.69-1.56-.88-3.33-1.31-5.31-1.31s-3.81,.44-5.41,1.33c-1.6,.89-2.85,2.13-3.75,3.71-.9,1.59-1.35,3.37-1.35,5.35s.46,3.8,1.39,5.39c.93,1.59,2.24,2.82,3.94,3.71,1.7,.89,3.67,1.33,5.9,1.33,1.75,0,3.32-.28,4.72-.84,1.4-.56,2.55-1.38,3.46-2.47l-2.55-2.93c-1.45,1.47-3.29,2.21-5.52,2.21-1.75,0-3.22-.44-4.4-1.31s-1.91-2.06-2.19-3.56h15.95c.05-.61,.08-1.08,.08-1.41m-36.09,6.24c-1.14,0-2.17-.26-3.08-.78-.91-.52-1.64-1.26-2.17-2.23-.53-.96-.8-2.08-.8-3.35s.27-2.39,.8-3.35c.53-.96,1.26-1.71,2.17-2.23,.91-.52,1.94-.78,3.08-.78s2.17,.26,3.08,.78c.91,.52,1.64,1.26,2.17,2.23,.53,.96,.8,2.08,.8,3.35s-.27,2.39-.8,3.35c-.53,.96-1.26,1.71-2.17,2.23-.91,.52-1.94,.78-3.08,.78m5.98-24.44v10.43c-.79-.91-1.74-1.6-2.86-2.06-1.12-.46-2.35-.68-3.69-.68-1.95,0-3.71,.43-5.27,1.29-1.56,.86-2.79,2.08-3.67,3.65-.89,1.57-1.33,3.39-1.33,5.44s.44,3.88,1.33,5.46c.89,1.59,2.11,2.81,3.67,3.67,1.56,.86,3.32,1.29,5.27,1.29,1.4,0,2.67-.24,3.83-.72,1.15-.48,2.13-1.21,2.91-2.17v2.63h4.57v-28.25h-4.76Zm-26.15,7.92v10.28c0,1.98-.5,3.5-1.5,4.55-1,1.05-2.36,1.58-4.06,1.58-1.52,0-2.7-.45-3.52-1.35-.82-.9-1.24-2.27-1.24-4.09v-10.96h-4.76v11.61c0,2.97,.78,5.21,2.34,6.72,1.56,1.51,3.7,2.26,6.42,2.26,1.32,0,2.55-.25,3.69-.74,1.14-.49,2.09-1.2,2.85-2.11v2.59h4.53v-20.33h-4.76Zm-25.92,0v10.28c0,1.98-.5,3.5-1.5,4.55-1,1.05-2.35,1.58-4.05,1.58-1.52,0-2.7-.45-3.52-1.35-.82-.9-1.24-2.27-1.24-4.09v-10.96h-4.76v11.61c0,2.97,.78,5.21,2.34,6.72,1.56,1.51,3.7,2.26,6.41,2.26,1.32,0,2.55-.25,3.69-.74,1.14-.49,2.09-1.2,2.85-2.11v2.59h4.53v-20.33h-4.76Z"/><path class="u" d="M462.98,235.1c-1.5,0-2.84,.24-4.04,.72-1.19,.48-2.18,1.19-2.97,2.13v-2.63h-4.53v20.33h4.76v-10.28c0-1.98,.51-3.5,1.52-4.55s2.4-1.58,4.15-1.58c1.55,0,2.74,.45,3.58,1.35,.84,.9,1.26,2.24,1.26,4.02v11.04h4.76v-11.65c0-2.94-.77-5.16-2.32-6.66-1.55-1.5-3.6-2.25-6.17-2.25m-22.54,.23v10.28c0,1.98-.5,3.5-1.5,4.55-1,1.05-2.36,1.58-4.05,1.58-1.52,0-2.7-.45-3.52-1.35-.83-.9-1.24-2.26-1.24-4.09v-10.96h-4.76v11.61c0,2.97,.78,5.21,2.34,6.72,1.56,1.51,3.7,2.27,6.41,2.27,1.32,0,2.55-.25,3.69-.74,1.14-.5,2.09-1.2,2.85-2.11v2.59h4.53v-20.33h-4.76Zm-25.92,20.33h4.76v-28.25h-4.76v28.25Zm-8.6-23.68c.89,0,1.62-.28,2.19-.86s.86-1.28,.86-2.11c0-.79-.29-1.44-.88-1.96-.58-.52-1.31-.78-2.17-.78s-1.59,.27-2.17,.82c-.58,.55-.88,1.23-.88,2.04s.29,1.49,.88,2.04,1.31,.82,2.17,.82m-2.4,23.68h4.76v-20.33h-4.76v20.33Zm-15.99-3.2c-1.22,0-2.17-.25-2.86-.76-.69-.51-1.03-1.19-1.03-2.06,0-1.8,1.37-2.7,4.11-2.7h4.91v2.36c-.38,1.02-1.03,1.8-1.96,2.34-.93,.55-1.99,.82-3.18,.82m.65-17.36c-1.67,0-3.26,.22-4.76,.65-1.5,.43-2.78,1.05-3.85,1.87l1.87,3.46c.76-.63,1.69-1.13,2.8-1.49,1.1-.35,2.23-.53,3.37-.53,1.67,0,2.94,.38,3.79,1.14,.85,.76,1.28,1.85,1.28,3.27v.3h-5.25c-2.92,0-5.06,.55-6.42,1.66-1.36,1.1-2.04,2.57-2.04,4.4,0,1.17,.31,2.21,.93,3.14,.62,.93,1.5,1.65,2.65,2.17,1.14,.52,2.47,.78,4,.78s2.82-.24,3.9-.7c1.08-.47,1.91-1.15,2.49-2.04v2.48h4.49v-11.92c0-2.89-.79-5.06-2.38-6.49-1.59-1.43-3.88-2.15-6.87-2.15m-16.26,20.56h5.79l-9.29-11.8,8.49-8.53h-5.71l-9.86,9.14v-17.05h-4.76v28.25h4.76v-5.37l3.54-3.35,7.04,8.72Zm-20.6-4.49c-.71,.56-1.6,.84-2.66,.84-.91,0-1.61-.26-2.09-.78-.48-.52-.72-1.28-.72-2.26v-9.67h5.44v-3.81h-5.44v-4.65h-4.76v4.65h-3.35v3.81h3.35v9.78c0,2.23,.61,3.93,1.83,5.1,1.22,1.17,2.94,1.75,5.18,1.75,.89,0,1.73-.11,2.53-.34,.8-.23,1.48-.57,2.04-1.03l-1.33-3.39Zm-26.88,1.29c-1.22,0-2.17-.25-2.86-.76-.69-.51-1.03-1.19-1.03-2.06,0-1.8,1.37-2.7,4.11-2.7h4.91v2.36c-.38,1.02-1.03,1.8-1.96,2.34-.93,.55-1.99,.82-3.18,.82m.65-17.36c-1.67,0-3.26,.22-4.76,.65-1.5,.43-2.78,1.05-3.85,1.87l1.87,3.46c.76-.63,1.69-1.13,2.8-1.49,1.1-.35,2.23-.53,3.37-.53,1.67,0,2.94,.38,3.79,1.14,.85,.76,1.28,1.85,1.28,3.27v.3h-5.25c-2.92,0-5.06,.55-6.42,1.66-1.36,1.1-2.04,2.57-2.04,4.4,0,1.17,.31,2.21,.93,3.14,.62,.93,1.5,1.65,2.65,2.17,1.14,.52,2.47,.78,4,.78s2.82-.24,3.9-.7c1.08-.47,1.91-1.15,2.49-2.04v2.48h4.49v-11.92c0-2.89-.79-5.06-2.38-6.49-1.59-1.43-3.88-2.15-6.87-2.15m-22.19,0c-1.6,0-3.06,.3-4.38,.9-1.32,.6-2.4,1.43-3.24,2.49-.69-1.12-1.62-1.96-2.8-2.53-1.18-.57-2.53-.86-4.05-.86-1.4,0-2.66,.24-3.81,.72-1.14,.48-2.09,1.18-2.85,2.09v-2.59h-4.53v20.33h4.76v-10.32c0-1.98,.48-3.49,1.43-4.53,.95-1.04,2.24-1.56,3.86-1.56,1.47,0,2.6,.45,3.39,1.35,.79,.9,1.18,2.24,1.18,4.02v11.04h4.76v-10.32c0-1.95,.48-3.46,1.45-4.51,.96-1.05,2.25-1.58,3.84-1.58,1.47,0,2.6,.45,3.39,1.35,.79,.9,1.18,2.24,1.18,4.02v11.04h4.76v-11.65c0-2.97-.75-5.2-2.25-6.68-1.5-1.48-3.53-2.23-6.09-2.23m-34.26-3.12c.89,0,1.62-.28,2.19-.86,.57-.57,.86-1.28,.86-2.11,0-.79-.29-1.44-.88-1.96-.58-.52-1.31-.78-2.17-.78s-1.59,.27-2.17,.82c-.58,.55-.88,1.23-.88,2.04s.29,1.49,.88,2.04c.58,.55,1.31,.82,2.17,.82m-2.4,23.68h4.76v-20.33h-4.76v20.33Zm-11,0h4.76v-28.25h-4.76v28.25Zm-15.99-3.2c-1.22,0-2.17-.25-2.85-.76-.68-.51-1.03-1.19-1.03-2.06,0-1.8,1.37-2.7,4.11-2.7h4.91v2.36c-.38,1.02-1.04,1.8-1.96,2.34-.93,.55-1.99,.82-3.18,.82m.65-17.36c-1.68,0-3.26,.22-4.76,.65-1.5,.43-2.78,1.05-3.85,1.87l1.86,3.46c.76-.63,1.69-1.13,2.8-1.49,1.1-.35,2.23-.53,3.37-.53,1.68,0,2.94,.38,3.79,1.14,.85,.76,1.28,1.85,1.28,3.27v.3h-5.25c-2.92,0-5.06,.55-6.41,1.66s-2.04,2.57-2.04,4.4c0,1.17,.31,2.21,.93,3.14,.62,.93,1.5,1.65,2.65,2.17,1.14,.52,2.48,.78,4,.78s2.82-.24,3.9-.7c1.08-.47,1.91-1.15,2.49-2.04v2.48h4.49v-11.92c0-2.89-.79-5.06-2.38-6.49-1.59-1.43-3.88-2.15-6.87-2.15m-23.76,17.36c-1.22,0-2.17-.25-2.85-.76-.68-.51-1.03-1.19-1.03-2.06,0-1.8,1.37-2.7,4.11-2.7h4.91v2.36c-.38,1.02-1.04,1.8-1.96,2.34-.93,.55-1.99,.82-3.18,.82m.65-17.36c-1.67,0-3.26,.22-4.76,.65-1.5,.43-2.78,1.05-3.85,1.87l1.86,3.46c.76-.63,1.69-1.13,2.8-1.49,1.1-.35,2.23-.53,3.37-.53,1.68,0,2.94,.38,3.79,1.14,.85,.76,1.28,1.85,1.28,3.27v.3h-5.25c-2.92,0-5.06,.55-6.42,1.66s-2.04,2.57-2.04,4.4c0,1.17,.31,2.21,.93,3.14,.62,.93,1.5,1.65,2.65,2.17,1.14,.52,2.48,.78,4,.78s2.82-.24,3.9-.7c1.08-.47,1.91-1.15,2.49-2.04v2.48h4.49v-11.92c0-2.89-.79-5.06-2.38-6.49-1.59-1.43-3.88-2.15-6.87-2.15m-18.77,.23v10.28c0,1.98-.5,3.5-1.5,4.55-1,1.05-2.35,1.58-4.05,1.58-1.52,0-2.7-.45-3.52-1.35-.83-.9-1.24-2.26-1.24-4.09v-10.96h-4.76v11.61c0,2.97,.78,5.21,2.34,6.72,1.56,1.51,3.7,2.27,6.41,2.27,1.32,0,2.55-.25,3.69-.74,1.14-.5,2.09-1.2,2.86-2.11v2.59h4.53v-20.33h-4.76Zm-20.18,15.84c-.71,.56-1.6,.84-2.67,.84-.91,0-1.61-.26-2.09-.78-.48-.52-.72-1.28-.72-2.26v-9.67h5.44v-3.81h-5.44v-4.65h-4.76v4.65h-3.35v3.81h3.35v9.78c0,2.23,.61,3.93,1.83,5.1,1.22,1.17,2.94,1.75,5.18,1.75,.89,0,1.73-.11,2.53-.34,.8-.23,1.48-.57,2.04-1.03l-1.33-3.39Zm-22.92-12.87v-2.97h-4.53v20.33h4.76v-9.86c0-2.03,.52-3.59,1.56-4.66,1.04-1.08,2.49-1.62,4.34-1.62,.33,0,.7,.04,1.1,.11v-4.53c-3.45,0-5.86,1.07-7.23,3.2m-13.13-6.32c.89,0,1.62-.28,2.19-.86s.86-1.28,.86-2.11c0-.79-.29-1.44-.88-1.96-.58-.52-1.31-.78-2.17-.78s-1.59,.27-2.17,.82c-.58,.55-.88,1.23-.88,2.04s.29,1.49,.88,2.04c.58,.55,1.31,.82,2.17,.82m-2.4,23.68h4.76v-20.33h-4.76v20.33Zm-7.5-26.65l-8.95,20.56-8.87-20.56h-5.37l11.65,26.65h4.87l11.61-26.65h-4.95Z"/><g class="q"><g class="ab"><path class="t" d="M436.47,357.53c20.75,8.4,43.43,13.02,67.2,13.02,99.01,0,179.26-80.26,179.26-179.26S602.67,12.02,503.66,12.02c-19.8,0-38.85,3.21-56.66,9.14"/></g></g></g></g></g></svg>